<svg width="443" height="414" viewBox="0 0 443 414" fill="none" xmlns="http://www.w3.org/2000/svg">
<rect x="-1" width="444" height="414" fill="#151A20"/>
<path d="M195.013 142C193.283 142 191.624 142.69 190.404 143.917L158.184 176.141C156.791 177.378 155.996 179.154 156 181.017V265.525C156.014 269.095 158.905 271.986 162.475 272C190.641 272 218.808 272 246.975 272C248.695 272.006 250.347 271.331 251.57 270.121L251.583 270.134L284.121 237.593C285.33 236.364 286.001 234.707 285.988 232.984V148.843C286.184 145.13 283.231 142.01 279.513 142L195.013 142ZM197.704 155.014H263.821L244.334 174.49C222.295 174.49 200.256 174.49 178.217 174.49L197.704 155.014ZM272.987 164.219V230.304L253.5 249.819V183.708L272.987 164.219ZM169.013 187.492H240.5V258.999H169.013V187.492Z" fill="#CCDEF0"/>
</svg>
