<svg width="25" height="25" viewBox="0 0 25 25" fill="none" xmlns="http://www.w3.org/2000/svg">
<mask id="mask0_2207_340" style="mask-type:alpha" maskUnits="userSpaceOnUse" x="0" y="0" width="25" height="25">
<rect width="25" height="25" fill="url(#paint0_linear_2207_340)"/>
</mask>
<g mask="url(#mask0_2207_340)">
<rect x="9.89209" y="22.5383" width="3.52805" height="3.52805" rx="1.76403" transform="rotate(-45 9.89209 22.5383)" fill="url(#paint1_linear_2207_340)"/>
<rect x="14.8816" y="17.5489" width="3.52805" height="3.52805" rx="1.76403" transform="rotate(-45 14.8816 17.5489)" fill="url(#paint2_linear_2207_340)"/>
<rect x="19.8708" y="12.5594" width="3.52805" height="3.52805" rx="1.76403" transform="rotate(-45 19.8708 12.5594)" fill="url(#paint3_linear_2207_340)"/>
<rect x="4.94604" y="17.506" width="3.52805" height="3.52805" rx="1.76403" transform="rotate(-45 4.94604 17.506)" fill="url(#paint4_linear_2207_340)"/>
<rect x="9.93555" y="12.5165" width="3.52805" height="3.52805" rx="1.76403" transform="rotate(-45 9.93555 12.5165)" fill="url(#paint5_linear_2207_340)"/>
<rect x="14.9248" y="7.52707" width="3.52805" height="3.52805" rx="1.76403" transform="rotate(-45 14.9248 7.52707)" fill="url(#paint6_linear_2207_340)"/>
<rect y="12.4736" width="3.52805" height="3.52805" rx="1.76403" transform="rotate(-45 0 12.4736)" fill="url(#paint7_linear_2207_340)"/>
<rect x="4.9895" y="7.48416" width="3.52805" height="3.52805" rx="1.76403" transform="rotate(-45 4.9895 7.48416)" fill="url(#paint8_linear_2207_340)"/>
<rect x="9.97876" y="2.49472" width="3.52805" height="3.52805" rx="1.76403" transform="rotate(-45 9.97876 2.49472)" fill="url(#paint9_linear_2207_340)"/>
</g>
<defs>
<linearGradient id="paint0_linear_2207_340" x1="12.5" y1="-1.44231" x2="12.0192" y2="25" gradientUnits="userSpaceOnUse">
<stop stop-color="#8BC2FF"/>
<stop offset="1" stop-color="#E6E6E4"/>
</linearGradient>
<linearGradient id="paint1_linear_2207_340" x1="11.6561" y1="22.3348" x2="11.5883" y2="26.0664" gradientUnits="userSpaceOnUse">
<stop stop-color="#8BC2FF"/>
<stop offset="1" stop-color="#E6E6E4"/>
</linearGradient>
<linearGradient id="paint2_linear_2207_340" x1="16.6456" y1="17.3453" x2="16.5778" y2="21.0769" gradientUnits="userSpaceOnUse">
<stop stop-color="#8BC2FF"/>
<stop offset="1" stop-color="#E6E6E4"/>
</linearGradient>
<linearGradient id="paint3_linear_2207_340" x1="21.6349" y1="12.3559" x2="21.567" y2="16.0875" gradientUnits="userSpaceOnUse">
<stop stop-color="#8BC2FF"/>
<stop offset="1" stop-color="#E6E6E4"/>
</linearGradient>
<linearGradient id="paint4_linear_2207_340" x1="6.71007" y1="17.3024" x2="6.64223" y2="21.034" gradientUnits="userSpaceOnUse">
<stop stop-color="#8BC2FF"/>
<stop offset="1" stop-color="#E6E6E4"/>
</linearGradient>
<linearGradient id="paint5_linear_2207_340" x1="11.6996" y1="12.313" x2="11.6317" y2="16.0446" gradientUnits="userSpaceOnUse">
<stop stop-color="#8BC2FF"/>
<stop offset="1" stop-color="#E6E6E4"/>
</linearGradient>
<linearGradient id="paint6_linear_2207_340" x1="16.6888" y1="7.32353" x2="16.621" y2="11.0551" gradientUnits="userSpaceOnUse">
<stop stop-color="#8BC2FF"/>
<stop offset="1" stop-color="#E6E6E4"/>
</linearGradient>
<linearGradient id="paint7_linear_2207_340" x1="1.76403" y1="12.27" x2="1.69618" y2="16.0016" gradientUnits="userSpaceOnUse">
<stop stop-color="#8BC2FF"/>
<stop offset="1" stop-color="#E6E6E4"/>
</linearGradient>
<linearGradient id="paint8_linear_2207_340" x1="6.75353" y1="7.28062" x2="6.68568" y2="11.0122" gradientUnits="userSpaceOnUse">
<stop stop-color="#8BC2FF"/>
<stop offset="1" stop-color="#E6E6E4"/>
</linearGradient>
<linearGradient id="paint9_linear_2207_340" x1="11.7428" y1="2.29118" x2="11.6749" y2="6.02278" gradientUnits="userSpaceOnUse">
<stop stop-color="#8BC2FF"/>
<stop offset="1" stop-color="#E6E6E4"/>
</linearGradient>
</defs>
</svg>
