<svg width="211" height="210" viewBox="0 0 211 210" fill="none" xmlns="http://www.w3.org/2000/svg">
<path d="M141.5 106.5V93H106V44.5H93V106.5H141.5Z" fill="#EAF4FF"/>
<path d="M180.5 180.5L169 169C172.167 165.667 179.3 158.1 182.5 154.5C185.7 150.9 184.697 146.917 182.5 143C180.189 138.881 176.8 140.2 172 137C167.2 133.8 168.289 126.5 170 124C172.167 120.833 177.3 113.5 180.5 109.5C183.7 105.5 189.833 105.833 192.5 106.5C197.667 108.333 208.4 115.3 210 128.5C211.6 141.7 191 168.667 180.5 180.5Z" fill="#EAF4FF"/>
<path d="M180.591 180.356L169.091 168.856C165.758 172.023 158.191 179.156 154.591 182.356C150.991 185.556 147.008 184.553 143.091 182.356C138.973 180.045 140.291 176.656 137.091 171.856C133.891 167.056 126.591 168.145 124.091 169.856C120.925 172.023 113.591 177.156 109.591 180.356C105.591 183.556 105.925 189.689 106.591 192.356C108.425 197.523 115.391 208.256 128.591 209.856C141.791 211.456 168.758 190.856 180.591 180.356Z" fill="#EAF4FF"/>
<path d="M193 100C193 48.6375 151.362 7 100 7C48.6375 7 7 48.6375 7 100C7 151.362 48.6375 193 100 193" stroke="#EAF4FF" stroke-width="14"/>
</svg>
