<svg width="27" height="25" viewBox="0 0 27 25" fill="none" xmlns="http://www.w3.org/2000/svg">
<g clip-path="url(#clip0_2125_221)">
<path d="M10.4285 23.6842C11.7697 23.6842 12.857 22.5715 12.857 21.1988C12.857 19.8262 11.7697 18.7134 10.4285 18.7134C9.08719 18.7134 7.99988 19.8262 7.99988 21.1988C7.99988 22.5715 9.08719 23.6842 10.4285 23.6842Z" stroke="#E6E6E4" stroke-width="2"/>
<path d="M20.7142 23.6842C22.0555 23.6842 23.1428 22.5715 23.1428 21.1988C23.1428 19.8262 22.0555 18.7134 20.7142 18.7134C19.373 18.7134 18.2856 19.8262 18.2856 21.1988C18.2856 22.5715 19.373 23.6842 20.7142 23.6842Z" stroke="#E6E6E4" stroke-width="2"/>
<path d="M1.28577 1.3158H3.78765C4.34106 1.3158 4.83238 1.6782 5.00738 2.21549L8.99272 14.4512C9.16772 14.9884 9.65905 15.3509 10.2125 15.3509H21.8572H22.5402C23.1428 15.3509 23.6645 14.9225 23.7952 14.3205L25.5095 6.4258C25.688 5.60406 25.0769 4.82457 24.2544 4.82457H9.28576" stroke="#E6E6E4" stroke-width="2" stroke-linecap="round"/>
</g>
<defs>
<clipPath id="clip0_2125_221">
<rect width="27" height="25" fill="white"/>
</clipPath>
</defs>
</svg>
