<svg width="20" height="22" viewBox="0 0 20 22" fill="none" xmlns="http://www.w3.org/2000/svg">
<mask id="path-1-outside-1_3134_631" maskUnits="userSpaceOnUse" x="0" y="0" width="20" height="22" fill="black">
<rect fill="white" width="20" height="22"/>
<path d="M8.83871 1C8.36114 1 7.96774 1.38715 7.96774 1.85714V2.42857H4.85131C4.34188 2.42857 3.86825 2.69223 3.6061 3.12221L3.15814 3.85714H2.16129C1.52335 3.85714 1 4.37219 1 5C1 5.62781 1.52335 6.14286 2.16129 6.14286H2.47316L3.51084 19.4169C3.58031 20.3074 4.34002 21 5.24767 21H14.7523C15.66 21 16.4197 20.3074 16.4892 19.4169L17.5268 6.14286H17.8387C18.4766 6.14286 19 5.62781 19 5C19 4.37219 18.4766 3.85714 17.8387 3.85714H16.8419L16.3939 3.12221C16.1318 2.69223 15.6581 2.42857 15.1487 2.42857H12.0323V1.85714C12.0323 1.38715 11.6389 1 11.1613 1H8.83871ZM8.83871 1.57143H11.1613C11.3253 1.57143 11.4516 1.69571 11.4516 1.85714V2.42857H8.54839V1.85714C8.54839 1.69571 8.67467 1.57143 8.83871 1.57143ZM4.85131 3H8.2093C8.24065 3.0051 8.27264 3.0051 8.30399 3H11.6932C11.7245 3.0051 11.7565 3.0051 11.7879 3H15.1487C15.4551 3 15.7378 3.1577 15.8955 3.41629L16.3389 4.14286H15.371C15.3517 4.14259 15.3326 4.14609 15.3148 4.15315C15.2969 4.16021 15.2807 4.17069 15.267 4.18398C15.2533 4.19727 15.2424 4.21311 15.235 4.23057C15.2276 4.24804 15.2237 4.26678 15.2237 4.28571C15.2237 4.30465 15.2276 4.32339 15.235 4.34086C15.2424 4.35832 15.2533 4.37416 15.267 4.38745C15.2807 4.40074 15.2969 4.41122 15.3148 4.41828C15.3326 4.42534 15.3517 4.42884 15.371 4.42857H16.8226H17.8387C18.1629 4.42857 18.4194 4.68095 18.4194 5C18.4194 5.31905 18.1629 5.57143 17.8387 5.57143H2.16129C1.8371 5.57143 1.58065 5.31905 1.58065 5C1.58065 4.68095 1.8371 4.42857 2.16129 4.42857H3.32258H13.3387C13.3579 4.42884 13.377 4.42534 13.3949 4.41828C13.4127 4.41122 13.429 4.40074 13.4427 4.38745C13.4564 4.37416 13.4673 4.35832 13.4747 4.34086C13.4821 4.32339 13.4859 4.30465 13.4859 4.28571C13.4859 4.26678 13.4821 4.24804 13.4747 4.23057C13.4673 4.21311 13.4564 4.19727 13.4427 4.18398C13.429 4.17069 13.4127 4.16021 13.3949 4.15315C13.377 4.14609 13.3579 4.14259 13.3387 4.14286H3.6611L4.10452 3.41629C4.26218 3.1577 4.54493 3 4.85131 3ZM14.2097 4.14286C14.1904 4.14259 14.1713 4.14609 14.1535 4.15315C14.1356 4.16021 14.1194 4.17069 14.1057 4.18398C14.092 4.19727 14.0811 4.21311 14.0737 4.23057C14.0663 4.24804 14.0624 4.26678 14.0624 4.28571C14.0624 4.30465 14.0663 4.32339 14.0737 4.34086C14.0811 4.35832 14.092 4.37416 14.1057 4.38745C14.1194 4.40074 14.1356 4.41122 14.1535 4.41828C14.1713 4.42534 14.1904 4.42884 14.2097 4.42857H14.7903C14.8096 4.42884 14.8287 4.42534 14.8465 4.41828C14.8644 4.41122 14.8806 4.40074 14.8943 4.38745C14.908 4.37416 14.9189 4.35832 14.9263 4.34086C14.9337 4.32339 14.9375 4.30465 14.9375 4.28571C14.9375 4.26678 14.9337 4.24804 14.9263 4.23057C14.9189 4.21311 14.908 4.19727 14.8943 4.18398C14.8806 4.17069 14.8644 4.16021 14.8465 4.15315C14.8287 4.14609 14.8096 4.14259 14.7903 4.14286H14.2097ZM3.05494 6.14286H16.9451L15.9102 19.3733C15.8636 19.9714 15.3619 20.4286 14.7523 20.4286H5.24767C4.63809 20.4286 4.13644 19.9714 4.08978 19.3733L3.05494 6.14286ZM6.51613 7.28571C6.03678 7.28571 5.64516 7.67112 5.64516 8.14286V18.1429C5.64516 18.6146 6.03678 19 6.51613 19C6.99548 19 7.3871 18.6146 7.3871 18.1429V8.14286C7.3871 7.67112 6.99548 7.28571 6.51613 7.28571ZM10 7.28571C9.52065 7.28571 9.12903 7.67112 9.12903 8.14286V18.1429C9.12903 18.6146 9.52065 19 10 19C10.4793 19 10.871 18.6146 10.871 18.1429V17.1429C10.8712 17.1239 10.8677 17.1051 10.8605 17.0876C10.8533 17.07 10.8427 17.054 10.8292 17.0405C10.8157 17.027 10.7996 17.0163 10.7818 17.009C10.7641 17.0017 10.745 16.998 10.7258 16.998C10.7066 16.998 10.6875 17.0017 10.6698 17.009C10.652 17.0163 10.6359 17.027 10.6224 17.0405C10.6089 17.054 10.5983 17.07 10.5911 17.0876C10.5839 17.1051 10.5804 17.1239 10.5806 17.1429V18.1429C10.5806 18.4603 10.3225 18.7143 10 18.7143C9.67748 18.7143 9.41935 18.4603 9.41935 18.1429V8.14286C9.41935 7.82546 9.67748 7.57143 10 7.57143C10.3225 7.57143 10.5806 7.82546 10.5806 8.14286V15.4286C10.5804 15.4475 10.5839 15.4663 10.5911 15.4839C10.5983 15.5014 10.6089 15.5174 10.6224 15.5309C10.6359 15.5444 10.652 15.5551 10.6698 15.5624C10.6875 15.5697 10.7066 15.5735 10.7258 15.5735C10.745 15.5735 10.7641 15.5697 10.7818 15.5624C10.7996 15.5551 10.8157 15.5444 10.8292 15.5309C10.8427 15.5174 10.8533 15.5014 10.8605 15.4839C10.8677 15.4663 10.8712 15.4475 10.871 15.4286V8.14286C10.871 7.67112 10.4793 7.28571 10 7.28571ZM13.4839 7.28571C13.0045 7.28571 12.6129 7.67112 12.6129 8.14286V8.57143C12.6126 8.59036 12.6162 8.60915 12.6234 8.62672C12.6305 8.64429 12.6412 8.66028 12.6547 8.67376C12.6682 8.68724 12.6843 8.69794 12.702 8.70525C12.7198 8.71256 12.7388 8.71632 12.7581 8.71632C12.7773 8.71632 12.7963 8.71256 12.8141 8.70525C12.8318 8.69794 12.8479 8.68724 12.8614 8.67376C12.8749 8.66028 12.8856 8.64429 12.8928 8.62672C12.8999 8.60915 12.9035 8.59036 12.9032 8.57143V8.14286C12.9032 7.82546 13.1613 7.57143 13.4839 7.57143C13.8064 7.57143 14.0645 7.82546 14.0645 8.14286V18.1429C14.0645 18.4603 13.8064 18.7143 13.4839 18.7143C13.1613 18.7143 12.9032 18.4603 12.9032 18.1429V10.8571C12.9035 10.8382 12.8999 10.8194 12.8928 10.8019C12.8856 10.7843 12.8749 10.7683 12.8614 10.7548C12.8479 10.7413 12.8318 10.7306 12.8141 10.7233C12.7963 10.716 12.7773 10.7123 12.7581 10.7123C12.7388 10.7123 12.7198 10.716 12.702 10.7233C12.6843 10.7306 12.6682 10.7413 12.6547 10.7548C12.6412 10.7683 12.6305 10.7843 12.6234 10.8019C12.6162 10.8194 12.6126 10.8382 12.6129 10.8571V18.1429C12.6129 18.6146 13.0045 19 13.4839 19C13.9632 19 14.3548 18.6146 14.3548 18.1429V8.14286C14.3548 7.67112 13.9632 7.28571 13.4839 7.28571ZM6.51613 7.57143C6.83865 7.57143 7.09677 7.82546 7.09677 8.14286V18.1429C7.09677 18.4603 6.83865 18.7143 6.51613 18.7143C6.19361 18.7143 5.93548 18.4603 5.93548 18.1429V8.14286C5.93548 7.82546 6.19361 7.57143 6.51613 7.57143ZM12.7558 9.28348C12.7367 9.28378 12.7179 9.28776 12.7004 9.29521C12.6829 9.30266 12.6671 9.31343 12.6538 9.3269C12.6405 9.34037 12.6301 9.35629 12.6231 9.37373C12.6161 9.39118 12.6126 9.40981 12.6129 9.42857V10C12.6126 10.0189 12.6162 10.0377 12.6234 10.0553C12.6305 10.0729 12.6412 10.0888 12.6547 10.1023C12.6682 10.1158 12.6843 10.1265 12.702 10.1338C12.7198 10.1411 12.7388 10.1449 12.7581 10.1449C12.7773 10.1449 12.7963 10.1411 12.8141 10.1338C12.8318 10.1265 12.8479 10.1158 12.8614 10.1023C12.8749 10.0888 12.8856 10.0729 12.8928 10.0553C12.8999 10.0377 12.9035 10.0189 12.9032 10V9.42857C12.9035 9.40944 12.8999 9.39043 12.8926 9.3727C12.8853 9.35496 12.8745 9.33884 12.8607 9.32531C12.847 9.31178 12.8306 9.3011 12.8126 9.29392C12.7945 9.28673 12.7752 9.28318 12.7558 9.28348Z"/>
</mask>
<path d="M8.83871 1C8.36114 1 7.96774 1.38715 7.96774 1.85714V2.42857H4.85131C4.34188 2.42857 3.86825 2.69223 3.6061 3.12221L3.15814 3.85714H2.16129C1.52335 3.85714 1 4.37219 1 5C1 5.62781 1.52335 6.14286 2.16129 6.14286H2.47316L3.51084 19.4169C3.58031 20.3074 4.34002 21 5.24767 21H14.7523C15.66 21 16.4197 20.3074 16.4892 19.4169L17.5268 6.14286H17.8387C18.4766 6.14286 19 5.62781 19 5C19 4.37219 18.4766 3.85714 17.8387 3.85714H16.8419L16.3939 3.12221C16.1318 2.69223 15.6581 2.42857 15.1487 2.42857H12.0323V1.85714C12.0323 1.38715 11.6389 1 11.1613 1H8.83871ZM8.83871 1.57143H11.1613C11.3253 1.57143 11.4516 1.69571 11.4516 1.85714V2.42857H8.54839V1.85714C8.54839 1.69571 8.67467 1.57143 8.83871 1.57143ZM4.85131 3H8.2093C8.24065 3.0051 8.27264 3.0051 8.30399 3H11.6932C11.7245 3.0051 11.7565 3.0051 11.7879 3H15.1487C15.4551 3 15.7378 3.1577 15.8955 3.41629L16.3389 4.14286H15.371C15.3517 4.14259 15.3326 4.14609 15.3148 4.15315C15.2969 4.16021 15.2807 4.17069 15.267 4.18398C15.2533 4.19727 15.2424 4.21311 15.235 4.23057C15.2276 4.24804 15.2237 4.26678 15.2237 4.28571C15.2237 4.30465 15.2276 4.32339 15.235 4.34086C15.2424 4.35832 15.2533 4.37416 15.267 4.38745C15.2807 4.40074 15.2969 4.41122 15.3148 4.41828C15.3326 4.42534 15.3517 4.42884 15.371 4.42857H16.8226H17.8387C18.1629 4.42857 18.4194 4.68095 18.4194 5C18.4194 5.31905 18.1629 5.57143 17.8387 5.57143H2.16129C1.8371 5.57143 1.58065 5.31905 1.58065 5C1.58065 4.68095 1.8371 4.42857 2.16129 4.42857H3.32258H13.3387C13.3579 4.42884 13.377 4.42534 13.3949 4.41828C13.4127 4.41122 13.429 4.40074 13.4427 4.38745C13.4564 4.37416 13.4673 4.35832 13.4747 4.34086C13.4821 4.32339 13.4859 4.30465 13.4859 4.28571C13.4859 4.26678 13.4821 4.24804 13.4747 4.23057C13.4673 4.21311 13.4564 4.19727 13.4427 4.18398C13.429 4.17069 13.4127 4.16021 13.3949 4.15315C13.377 4.14609 13.3579 4.14259 13.3387 4.14286H3.6611L4.10452 3.41629C4.26218 3.1577 4.54493 3 4.85131 3ZM14.2097 4.14286C14.1904 4.14259 14.1713 4.14609 14.1535 4.15315C14.1356 4.16021 14.1194 4.17069 14.1057 4.18398C14.092 4.19727 14.0811 4.21311 14.0737 4.23057C14.0663 4.24804 14.0624 4.26678 14.0624 4.28571C14.0624 4.30465 14.0663 4.32339 14.0737 4.34086C14.0811 4.35832 14.092 4.37416 14.1057 4.38745C14.1194 4.40074 14.1356 4.41122 14.1535 4.41828C14.1713 4.42534 14.1904 4.42884 14.2097 4.42857H14.7903C14.8096 4.42884 14.8287 4.42534 14.8465 4.41828C14.8644 4.41122 14.8806 4.40074 14.8943 4.38745C14.908 4.37416 14.9189 4.35832 14.9263 4.34086C14.9337 4.32339 14.9375 4.30465 14.9375 4.28571C14.9375 4.26678 14.9337 4.24804 14.9263 4.23057C14.9189 4.21311 14.908 4.19727 14.8943 4.18398C14.8806 4.17069 14.8644 4.16021 14.8465 4.15315C14.8287 4.14609 14.8096 4.14259 14.7903 4.14286H14.2097ZM3.05494 6.14286H16.9451L15.9102 19.3733C15.8636 19.9714 15.3619 20.4286 14.7523 20.4286H5.24767C4.63809 20.4286 4.13644 19.9714 4.08978 19.3733L3.05494 6.14286ZM6.51613 7.28571C6.03678 7.28571 5.64516 7.67112 5.64516 8.14286V18.1429C5.64516 18.6146 6.03678 19 6.51613 19C6.99548 19 7.3871 18.6146 7.3871 18.1429V8.14286C7.3871 7.67112 6.99548 7.28571 6.51613 7.28571ZM10 7.28571C9.52065 7.28571 9.12903 7.67112 9.12903 8.14286V18.1429C9.12903 18.6146 9.52065 19 10 19C10.4793 19 10.871 18.6146 10.871 18.1429V17.1429C10.8712 17.1239 10.8677 17.1051 10.8605 17.0876C10.8533 17.07 10.8427 17.054 10.8292 17.0405C10.8157 17.027 10.7996 17.0163 10.7818 17.009C10.7641 17.0017 10.745 16.998 10.7258 16.998C10.7066 16.998 10.6875 17.0017 10.6698 17.009C10.652 17.0163 10.6359 17.027 10.6224 17.0405C10.6089 17.054 10.5983 17.07 10.5911 17.0876C10.5839 17.1051 10.5804 17.1239 10.5806 17.1429V18.1429C10.5806 18.4603 10.3225 18.7143 10 18.7143C9.67748 18.7143 9.41935 18.4603 9.41935 18.1429V8.14286C9.41935 7.82546 9.67748 7.57143 10 7.57143C10.3225 7.57143 10.5806 7.82546 10.5806 8.14286V15.4286C10.5804 15.4475 10.5839 15.4663 10.5911 15.4839C10.5983 15.5014 10.6089 15.5174 10.6224 15.5309C10.6359 15.5444 10.652 15.5551 10.6698 15.5624C10.6875 15.5697 10.7066 15.5735 10.7258 15.5735C10.745 15.5735 10.7641 15.5697 10.7818 15.5624C10.7996 15.5551 10.8157 15.5444 10.8292 15.5309C10.8427 15.5174 10.8533 15.5014 10.8605 15.4839C10.8677 15.4663 10.8712 15.4475 10.871 15.4286V8.14286C10.871 7.67112 10.4793 7.28571 10 7.28571ZM13.4839 7.28571C13.0045 7.28571 12.6129 7.67112 12.6129 8.14286V8.57143C12.6126 8.59036 12.6162 8.60915 12.6234 8.62672C12.6305 8.64429 12.6412 8.66028 12.6547 8.67376C12.6682 8.68724 12.6843 8.69794 12.702 8.70525C12.7198 8.71256 12.7388 8.71632 12.7581 8.71632C12.7773 8.71632 12.7963 8.71256 12.8141 8.70525C12.8318 8.69794 12.8479 8.68724 12.8614 8.67376C12.8749 8.66028 12.8856 8.64429 12.8928 8.62672C12.8999 8.60915 12.9035 8.59036 12.9032 8.57143V8.14286C12.9032 7.82546 13.1613 7.57143 13.4839 7.57143C13.8064 7.57143 14.0645 7.82546 14.0645 8.14286V18.1429C14.0645 18.4603 13.8064 18.7143 13.4839 18.7143C13.1613 18.7143 12.9032 18.4603 12.9032 18.1429V10.8571C12.9035 10.8382 12.8999 10.8194 12.8928 10.8019C12.8856 10.7843 12.8749 10.7683 12.8614 10.7548C12.8479 10.7413 12.8318 10.7306 12.8141 10.7233C12.7963 10.716 12.7773 10.7123 12.7581 10.7123C12.7388 10.7123 12.7198 10.716 12.702 10.7233C12.6843 10.7306 12.6682 10.7413 12.6547 10.7548C12.6412 10.7683 12.6305 10.7843 12.6234 10.8019C12.6162 10.8194 12.6126 10.8382 12.6129 10.8571V18.1429C12.6129 18.6146 13.0045 19 13.4839 19C13.9632 19 14.3548 18.6146 14.3548 18.1429V8.14286C14.3548 7.67112 13.9632 7.28571 13.4839 7.28571ZM6.51613 7.57143C6.83865 7.57143 7.09677 7.82546 7.09677 8.14286V18.1429C7.09677 18.4603 6.83865 18.7143 6.51613 18.7143C6.19361 18.7143 5.93548 18.4603 5.93548 18.1429V8.14286C5.93548 7.82546 6.19361 7.57143 6.51613 7.57143ZM12.7558 9.28348C12.7367 9.28378 12.7179 9.28776 12.7004 9.29521C12.6829 9.30266 12.6671 9.31343 12.6538 9.3269C12.6405 9.34037 12.6301 9.35629 12.6231 9.37373C12.6161 9.39118 12.6126 9.40981 12.6129 9.42857V10C12.6126 10.0189 12.6162 10.0377 12.6234 10.0553C12.6305 10.0729 12.6412 10.0888 12.6547 10.1023C12.6682 10.1158 12.6843 10.1265 12.702 10.1338C12.7198 10.1411 12.7388 10.1449 12.7581 10.1449C12.7773 10.1449 12.7963 10.1411 12.8141 10.1338C12.8318 10.1265 12.8479 10.1158 12.8614 10.1023C12.8749 10.0888 12.8856 10.0729 12.8928 10.0553C12.8999 10.0377 12.9035 10.0189 12.9032 10V9.42857C12.9035 9.40944 12.8999 9.39043 12.8926 9.3727C12.8853 9.35496 12.8745 9.33884 12.8607 9.32531C12.847 9.31178 12.8306 9.3011 12.8126 9.29392C12.7945 9.28673 12.7752 9.28318 12.7558 9.28348Z" fill="white"/>
<path d="M8.83871 1C8.36114 1 7.96774 1.38715 7.96774 1.85714V2.42857H4.85131C4.34188 2.42857 3.86825 2.69223 3.6061 3.12221L3.15814 3.85714H2.16129C1.52335 3.85714 1 4.37219 1 5C1 5.62781 1.52335 6.14286 2.16129 6.14286H2.47316L3.51084 19.4169C3.58031 20.3074 4.34002 21 5.24767 21H14.7523C15.66 21 16.4197 20.3074 16.4892 19.4169L17.5268 6.14286H17.8387C18.4766 6.14286 19 5.62781 19 5C19 4.37219 18.4766 3.85714 17.8387 3.85714H16.8419L16.3939 3.12221C16.1318 2.69223 15.6581 2.42857 15.1487 2.42857H12.0323V1.85714C12.0323 1.38715 11.6389 1 11.1613 1H8.83871ZM8.83871 1.57143H11.1613C11.3253 1.57143 11.4516 1.69571 11.4516 1.85714V2.42857H8.54839V1.85714C8.54839 1.69571 8.67467 1.57143 8.83871 1.57143ZM4.85131 3H8.2093C8.24065 3.0051 8.27264 3.0051 8.30399 3H11.6932C11.7245 3.0051 11.7565 3.0051 11.7879 3H15.1487C15.4551 3 15.7378 3.1577 15.8955 3.41629L16.3389 4.14286H15.371C15.3517 4.14259 15.3326 4.14609 15.3148 4.15315C15.2969 4.16021 15.2807 4.17069 15.267 4.18398C15.2533 4.19727 15.2424 4.21311 15.235 4.23057C15.2276 4.24804 15.2237 4.26678 15.2237 4.28571C15.2237 4.30465 15.2276 4.32339 15.235 4.34086C15.2424 4.35832 15.2533 4.37416 15.267 4.38745C15.2807 4.40074 15.2969 4.41122 15.3148 4.41828C15.3326 4.42534 15.3517 4.42884 15.371 4.42857H16.8226H17.8387C18.1629 4.42857 18.4194 4.68095 18.4194 5C18.4194 5.31905 18.1629 5.57143 17.8387 5.57143H2.16129C1.8371 5.57143 1.58065 5.31905 1.58065 5C1.58065 4.68095 1.8371 4.42857 2.16129 4.42857H3.32258H13.3387C13.3579 4.42884 13.377 4.42534 13.3949 4.41828C13.4127 4.41122 13.429 4.40074 13.4427 4.38745C13.4564 4.37416 13.4673 4.35832 13.4747 4.34086C13.4821 4.32339 13.4859 4.30465 13.4859 4.28571C13.4859 4.26678 13.4821 4.24804 13.4747 4.23057C13.4673 4.21311 13.4564 4.19727 13.4427 4.18398C13.429 4.17069 13.4127 4.16021 13.3949 4.15315C13.377 4.14609 13.3579 4.14259 13.3387 4.14286H3.6611L4.10452 3.41629C4.26218 3.1577 4.54493 3 4.85131 3ZM14.2097 4.14286C14.1904 4.14259 14.1713 4.14609 14.1535 4.15315C14.1356 4.16021 14.1194 4.17069 14.1057 4.18398C14.092 4.19727 14.0811 4.21311 14.0737 4.23057C14.0663 4.24804 14.0624 4.26678 14.0624 4.28571C14.0624 4.30465 14.0663 4.32339 14.0737 4.34086C14.0811 4.35832 14.092 4.37416 14.1057 4.38745C14.1194 4.40074 14.1356 4.41122 14.1535 4.41828C14.1713 4.42534 14.1904 4.42884 14.2097 4.42857H14.7903C14.8096 4.42884 14.8287 4.42534 14.8465 4.41828C14.8644 4.41122 14.8806 4.40074 14.8943 4.38745C14.908 4.37416 14.9189 4.35832 14.9263 4.34086C14.9337 4.32339 14.9375 4.30465 14.9375 4.28571C14.9375 4.26678 14.9337 4.24804 14.9263 4.23057C14.9189 4.21311 14.908 4.19727 14.8943 4.18398C14.8806 4.17069 14.8644 4.16021 14.8465 4.15315C14.8287 4.14609 14.8096 4.14259 14.7903 4.14286H14.2097ZM3.05494 6.14286H16.9451L15.9102 19.3733C15.8636 19.9714 15.3619 20.4286 14.7523 20.4286H5.24767C4.63809 20.4286 4.13644 19.9714 4.08978 19.3733L3.05494 6.14286ZM6.51613 7.28571C6.03678 7.28571 5.64516 7.67112 5.64516 8.14286V18.1429C5.64516 18.6146 6.03678 19 6.51613 19C6.99548 19 7.3871 18.6146 7.3871 18.1429V8.14286C7.3871 7.67112 6.99548 7.28571 6.51613 7.28571ZM10 7.28571C9.52065 7.28571 9.12903 7.67112 9.12903 8.14286V18.1429C9.12903 18.6146 9.52065 19 10 19C10.4793 19 10.871 18.6146 10.871 18.1429V17.1429C10.8712 17.1239 10.8677 17.1051 10.8605 17.0876C10.8533 17.07 10.8427 17.054 10.8292 17.0405C10.8157 17.027 10.7996 17.0163 10.7818 17.009C10.7641 17.0017 10.745 16.998 10.7258 16.998C10.7066 16.998 10.6875 17.0017 10.6698 17.009C10.652 17.0163 10.6359 17.027 10.6224 17.0405C10.6089 17.054 10.5983 17.07 10.5911 17.0876C10.5839 17.1051 10.5804 17.1239 10.5806 17.1429V18.1429C10.5806 18.4603 10.3225 18.7143 10 18.7143C9.67748 18.7143 9.41935 18.4603 9.41935 18.1429V8.14286C9.41935 7.82546 9.67748 7.57143 10 7.57143C10.3225 7.57143 10.5806 7.82546 10.5806 8.14286V15.4286C10.5804 15.4475 10.5839 15.4663 10.5911 15.4839C10.5983 15.5014 10.6089 15.5174 10.6224 15.5309C10.6359 15.5444 10.652 15.5551 10.6698 15.5624C10.6875 15.5697 10.7066 15.5735 10.7258 15.5735C10.745 15.5735 10.7641 15.5697 10.7818 15.5624C10.7996 15.5551 10.8157 15.5444 10.8292 15.5309C10.8427 15.5174 10.8533 15.5014 10.8605 15.4839C10.8677 15.4663 10.8712 15.4475 10.871 15.4286V8.14286C10.871 7.67112 10.4793 7.28571 10 7.28571ZM13.4839 7.28571C13.0045 7.28571 12.6129 7.67112 12.6129 8.14286V8.57143C12.6126 8.59036 12.6162 8.60915 12.6234 8.62672C12.6305 8.64429 12.6412 8.66028 12.6547 8.67376C12.6682 8.68724 12.6843 8.69794 12.702 8.70525C12.7198 8.71256 12.7388 8.71632 12.7581 8.71632C12.7773 8.71632 12.7963 8.71256 12.8141 8.70525C12.8318 8.69794 12.8479 8.68724 12.8614 8.67376C12.8749 8.66028 12.8856 8.64429 12.8928 8.62672C12.8999 8.60915 12.9035 8.59036 12.9032 8.57143V8.14286C12.9032 7.82546 13.1613 7.57143 13.4839 7.57143C13.8064 7.57143 14.0645 7.82546 14.0645 8.14286V18.1429C14.0645 18.4603 13.8064 18.7143 13.4839 18.7143C13.1613 18.7143 12.9032 18.4603 12.9032 18.1429V10.8571C12.9035 10.8382 12.8999 10.8194 12.8928 10.8019C12.8856 10.7843 12.8749 10.7683 12.8614 10.7548C12.8479 10.7413 12.8318 10.7306 12.8141 10.7233C12.7963 10.716 12.7773 10.7123 12.7581 10.7123C12.7388 10.7123 12.7198 10.716 12.702 10.7233C12.6843 10.7306 12.6682 10.7413 12.6547 10.7548C12.6412 10.7683 12.6305 10.7843 12.6234 10.8019C12.6162 10.8194 12.6126 10.8382 12.6129 10.8571V18.1429C12.6129 18.6146 13.0045 19 13.4839 19C13.9632 19 14.3548 18.6146 14.3548 18.1429V8.14286C14.3548 7.67112 13.9632 7.28571 13.4839 7.28571ZM6.51613 7.57143C6.83865 7.57143 7.09677 7.82546 7.09677 8.14286V18.1429C7.09677 18.4603 6.83865 18.7143 6.51613 18.7143C6.19361 18.7143 5.93548 18.4603 5.93548 18.1429V8.14286C5.93548 7.82546 6.19361 7.57143 6.51613 7.57143ZM12.7558 9.28348C12.7367 9.28378 12.7179 9.28776 12.7004 9.29521C12.6829 9.30266 12.6671 9.31343 12.6538 9.3269C12.6405 9.34037 12.6301 9.35629 12.6231 9.37373C12.6161 9.39118 12.6126 9.40981 12.6129 9.42857V10C12.6126 10.0189 12.6162 10.0377 12.6234 10.0553C12.6305 10.0729 12.6412 10.0888 12.6547 10.1023C12.6682 10.1158 12.6843 10.1265 12.702 10.1338C12.7198 10.1411 12.7388 10.1449 12.7581 10.1449C12.7773 10.1449 12.7963 10.1411 12.8141 10.1338C12.8318 10.1265 12.8479 10.1158 12.8614 10.1023C12.8749 10.0888 12.8856 10.0729 12.8928 10.0553C12.8999 10.0377 12.9035 10.0189 12.9032 10V9.42857C12.9035 9.40944 12.8999 9.39043 12.8926 9.3727C12.8853 9.35496 12.8745 9.33884 12.8607 9.32531C12.847 9.31178 12.8306 9.3011 12.8126 9.29392C12.7945 9.28673 12.7752 9.28318 12.7558 9.28348Z" stroke="white" stroke-width="0.6" mask="url(#path-1-outside-1_3134_631)"/>
</svg>
