<svg width="32" height="28" viewBox="0 0 32 28" fill="none" xmlns="http://www.w3.org/2000/svg">
<g filter="url(#filter0_d_2788_794)">
<circle cx="11.4523" cy="9.49749" r="8.74749" stroke="white" stroke-width="1.5" shape-rendering="crispEdges"/>
</g>
<g filter="url(#filter1_d_2788_794)">
<path d="M14.4418 10.679C14.4418 11.273 14.2438 11.7717 13.8478 12.175C13.4518 12.571 12.8614 12.8057 12.0768 12.879C11.9228 12.8863 11.8458 12.9633 11.8458 13.11V13.682C11.8458 13.7553 11.8238 13.8103 11.7798 13.847C11.7431 13.891 11.6881 13.913 11.6148 13.913H11.2848C11.2114 13.913 11.1528 13.891 11.1088 13.847C11.0721 13.8103 11.0538 13.7553 11.0538 13.682V13.077C11.0538 12.9303 10.9804 12.846 10.8338 12.824C10.2544 12.7433 9.78144 12.5783 9.41477 12.329C9.0481 12.0723 8.7621 11.7717 8.55677 11.427C8.53477 11.383 8.52377 11.3427 8.52377 11.306C8.52377 11.2327 8.56044 11.1703 8.63377 11.119L9.26077 10.668C9.3121 10.6313 9.3561 10.613 9.39277 10.613C9.4661 10.613 9.52477 10.6607 9.56877 10.756C9.84744 11.2547 10.2581 11.5847 10.8008 11.746C10.8228 11.7533 10.8521 11.757 10.8888 11.757C10.9401 11.757 10.9804 11.7387 11.0098 11.702C11.0391 11.6653 11.0538 11.614 11.0538 11.548V9.502C11.0538 9.37 10.9914 9.28567 10.8668 9.249L10.4048 9.106C9.7961 8.90067 9.37444 8.61833 9.13977 8.259C8.91244 7.89233 8.79877 7.53667 8.79877 7.192C8.79877 6.928 8.86844 6.64567 9.00777 6.345C9.1471 6.04433 9.37077 5.773 9.67877 5.531C9.98677 5.289 10.3718 5.135 10.8338 5.069C10.9804 5.047 11.0538 4.96633 11.0538 4.827V4.244C11.0538 4.17067 11.0721 4.11567 11.1088 4.079C11.1528 4.035 11.2114 4.013 11.2848 4.013H11.6148C11.6881 4.013 11.7431 4.035 11.7798 4.079C11.8238 4.11567 11.8458 4.17067 11.8458 4.244V4.838C11.8458 4.97733 11.9191 5.058 12.0658 5.08C12.4398 5.13133 12.7771 5.234 13.0778 5.388C13.3784 5.542 13.6681 5.75833 13.9468 6.037C13.9981 6.08833 14.0238 6.13967 14.0238 6.191C14.0238 6.26433 13.9871 6.323 13.9138 6.367L13.2318 6.796C13.1951 6.82533 13.1511 6.84 13.0998 6.84C13.0264 6.84 12.9641 6.80333 12.9128 6.73C12.7001 6.45133 12.4288 6.26067 12.0988 6.158C12.0768 6.15067 12.0474 6.147 12.0108 6.147C11.9594 6.147 11.9191 6.16533 11.8898 6.202C11.8604 6.23867 11.8458 6.29 11.8458 6.356V8.171C11.8458 8.303 11.9118 8.391 12.0438 8.435L12.6378 8.6C13.1951 8.76133 13.6351 9.029 13.9578 9.403C14.2804 9.777 14.4418 10.2023 14.4418 10.679ZM10.0308 7.104C10.0308 7.30933 10.0931 7.48533 10.2178 7.632C10.3498 7.77867 10.5368 7.907 10.7788 8.017C10.8228 8.039 10.8594 8.05 10.8888 8.05C10.9401 8.05 10.9804 8.03167 11.0098 7.995C11.0391 7.951 11.0538 7.89967 11.0538 7.841V6.334C11.0538 6.29 11.0281 6.24967 10.9768 6.213C10.9328 6.17633 10.8778 6.158 10.8118 6.158C10.7091 6.158 10.5918 6.202 10.4598 6.29C10.2984 6.40733 10.1848 6.54667 10.1188 6.708C10.0601 6.862 10.0308 6.994 10.0308 7.104ZM12.0768 9.623C12.0548 9.61567 12.0291 9.612 11.9998 9.612C11.8971 9.612 11.8458 9.68167 11.8458 9.821V11.625C11.8458 11.7057 11.8678 11.7643 11.9118 11.801C11.9558 11.8377 12.0144 11.8523 12.0878 11.845C12.3884 11.7937 12.6488 11.6873 12.8688 11.526C13.0888 11.3573 13.1988 11.1043 13.1988 10.767C13.1988 10.525 13.1181 10.3197 12.9568 10.151C12.8028 9.98233 12.5828 9.83567 12.2968 9.711C12.1794 9.65967 12.1061 9.63033 12.0768 9.623Z" fill="white"/>
</g>
<g filter="url(#filter2_d_2788_794)">
<circle cx="21.7236" cy="18.5024" r="9.49749" fill="#2C3641"/>
<circle cx="21.7236" cy="18.5024" r="8.74749" stroke="white" stroke-width="1.5"/>
</g>
<g filter="url(#filter3_d_2788_794)">
<path d="M18.9778 23V13.718H21.4218C22.5571 13.718 23.3978 13.9477 23.9438 14.407C24.4985 14.8663 24.7758 15.5337 24.7758 16.409C24.7758 16.9983 24.6415 17.5053 24.3728 17.93C24.1041 18.346 23.7055 18.6667 23.1768 18.892C22.6568 19.1173 22.0111 19.23 21.2398 19.23H20.1478V23H18.9778ZM17.8468 21.232V20.387H22.2928V21.232H17.8468ZM17.8468 19.23V18.242H20.8238V19.23H17.8468ZM21.0708 18.242C21.5995 18.242 22.0458 18.1857 22.4098 18.073C22.7825 17.9603 23.0685 17.774 23.2678 17.514C23.4671 17.254 23.5668 16.8987 23.5668 16.448C23.5668 15.8587 23.3848 15.421 23.0208 15.135C22.6568 14.849 22.0891 14.706 21.3178 14.706H20.1478V18.242H21.0708Z" fill="white"/>
</g>
<defs>
<filter id="filter0_d_2788_794" x="0.954834" y="0" width="19.9949" height="18.9949" filterUnits="userSpaceOnUse" color-interpolation-filters="sRGB">
<feFlood flood-opacity="0" result="BackgroundImageFix"/>
<feColorMatrix in="SourceAlpha" type="matrix" values="0 0 0 0 0 0 0 0 0 0 0 0 0 0 0 0 0 0 127 0" result="hardAlpha"/>
<feOffset dx="-1"/>
<feComposite in2="hardAlpha" operator="out"/>
<feColorMatrix type="matrix" values="0 0 0 0 0.0823529 0 0 0 0 0.101961 0 0 0 0 0.12549 0 0 0 1 0"/>
<feBlend mode="normal" in2="BackgroundImageFix" result="effect1_dropShadow_2788_794"/>
<feBlend mode="normal" in="SourceGraphic" in2="effect1_dropShadow_2788_794" result="shape"/>
</filter>
<filter id="filter1_d_2788_794" x="8.02368" y="4.01294" width="6.41797" height="10.9001" filterUnits="userSpaceOnUse" color-interpolation-filters="sRGB">
<feFlood flood-opacity="0" result="BackgroundImageFix"/>
<feColorMatrix in="SourceAlpha" type="matrix" values="0 0 0 0 0 0 0 0 0 0 0 0 0 0 0 0 0 0 127 0" result="hardAlpha"/>
<feOffset dx="-0.5" dy="1"/>
<feComposite in2="hardAlpha" operator="out"/>
<feColorMatrix type="matrix" values="0 0 0 0 0.0823529 0 0 0 0 0.101961 0 0 0 0 0.12549 0 0 0 1 0"/>
<feBlend mode="normal" in2="BackgroundImageFix" result="effect1_dropShadow_2788_794"/>
<feBlend mode="normal" in="SourceGraphic" in2="effect1_dropShadow_2788_794" result="shape"/>
</filter>
<filter id="filter2_d_2788_794" x="11.4261" y="8.50488" width="19.7949" height="19.4949" filterUnits="userSpaceOnUse" color-interpolation-filters="sRGB">
<feFlood flood-opacity="0" result="BackgroundImageFix"/>
<feColorMatrix in="SourceAlpha" type="matrix" values="0 0 0 0 0 0 0 0 0 0 0 0 0 0 0 0 0 0 127 0" result="hardAlpha"/>
<feOffset dx="-0.8" dy="-0.5"/>
<feComposite in2="hardAlpha" operator="out"/>
<feColorMatrix type="matrix" values="0 0 0 0 0.0823529 0 0 0 0 0.101961 0 0 0 0 0.12549 0 0 0 1 0"/>
<feBlend mode="normal" in2="BackgroundImageFix" result="effect1_dropShadow_2788_794"/>
<feBlend mode="normal" in="SourceGraphic" in2="effect1_dropShadow_2788_794" result="shape"/>
</filter>
<filter id="filter3_d_2788_794" x="17.8467" y="13.718" width="7.9292" height="10.282" filterUnits="userSpaceOnUse" color-interpolation-filters="sRGB">
<feFlood flood-opacity="0" result="BackgroundImageFix"/>
<feColorMatrix in="SourceAlpha" type="matrix" values="0 0 0 0 0 0 0 0 0 0 0 0 0 0 0 0 0 0 127 0" result="hardAlpha"/>
<feOffset dx="1" dy="1"/>
<feComposite in2="hardAlpha" operator="out"/>
<feColorMatrix type="matrix" values="0 0 0 0 0.0823529 0 0 0 0 0.101961 0 0 0 0 0.12549 0 0 0 1 0"/>
<feBlend mode="normal" in2="BackgroundImageFix" result="effect1_dropShadow_2788_794"/>
<feBlend mode="normal" in="SourceGraphic" in2="effect1_dropShadow_2788_794" result="shape"/>
</filter>
</defs>
</svg>
