<svg width="25" height="26" viewBox="0 0 25 26" fill="none" xmlns="http://www.w3.org/2000/svg">
<path d="M13.5 20.5249L10.05 25.4749H10V16.5249H13.5V20.5249Z" fill="#2C3641"/>
<path d="M15 20.5249L11.55 23.0249H11.5V16.5249H15V20.5249Z" fill="#151B20"/>
<path d="M13 22.8667L11.05 25H11V17H13V22.8667Z" fill="#2C3641"/>
<path d="M23.6501 4.625C21.9501 5.72502 17.6001 6.52498 12.5001 6.52498C7.40007 6.52498 3.0501 5.72497 1.3501 4.625L10.0001 16.525H15.0001L23.6501 4.625C23.7001 4.625 23.7001 4.625 23.6501 4.625Z" fill="#151B20"/>
<path d="M20.9644 5C19.305 6.01683 17.4086 6.75629 12.5727 6.75629C7.73672 6.75629 3.61198 6.01678 2 5L10.2021 16H12.7623L20.9644 5C21.0119 5 21.0119 5 20.9644 5Z" fill="#2C3641"/>
<path d="M12.5 6.52491V0.524902C5.85001 0.524902 0.5 1.87492 0.5 3.52491C0.5 5.17489 5.85001 6.52491 12.5 6.52491Z" fill="white"/>
<path d="M12.5 0.524902V6.52491C19.15 6.52491 24.5 5.17489 24.5 3.52491C24.5 1.87492 19.15 0.524902 12.5 0.524902Z" fill="#151B20"/>
<path d="M22.5 3.52491C22.5 5.17489 19.15 6.52491 12.5 6.52491C5.84999 6.52491 2.5 5.17494 2.5 3.52491C2.5 1.87487 5.84999 0.524902 12.5 0.524902C19.15 0.524902 22.5 1.87492 22.5 3.52491Z" fill="#2C3641"/>
<path d="M12.5 7.02489C6.30002 7.02489 0 5.82493 0 3.5249C0 1.22486 6.30002 0.0249023 12.5 0.0249023C18.7 0.0249023 25 1.22491 25 3.5249C25 5.82488 18.7 7.02489 12.5 7.02489ZM12.5 1.02494C5.50002 1.02494 0.999984 2.52491 0.999984 3.52495C0.999984 4.52498 5.49997 6.02496 12.5 6.02496C19.5001 6.02496 24 4.52498 24 3.52495C24 2.52491 19.5 1.02494 12.5 1.02494Z" fill="white"/>
<path d="M9.99991 25.9749C9.94989 25.9749 9.8499 25.9749 9.79994 25.9249C9.59996 25.8249 9.44995 25.6749 9.44995 25.4249V16.5249C9.44995 16.2249 9.64993 16.0249 9.94994 16.0249H14.9499C15.2499 16.0249 15.4499 16.2249 15.4499 16.5249V20.5249C15.4499 20.6749 15.3999 20.7749 15.2999 20.8749L10.3499 25.8249C10.2999 25.9249 10.1499 25.9749 9.99991 25.9749ZM10.4999 17.0249V24.3249L14.4999 20.325V17.0249H10.4999Z" fill="white"/>
<path d="M14.9999 17.0249H9.99989C9.84989 17.0249 9.69988 16.9249 9.59989 16.8249L0.899894 4.92485C0.749886 4.72487 0.799906 4.42486 0.949913 4.27485C1.09992 4.12484 1.39994 4.07487 1.59991 4.17486C3.29992 5.27488 7.69991 6.02487 12.4999 6.02487C17.2999 6.02487 21.6999 5.27483 23.3999 4.17481C23.5999 4.07482 23.8999 4.07482 24.0499 4.2748C24.1999 4.47477 24.1999 4.72482 24.0999 4.9248L15.3999 16.8248C15.2999 16.9248 15.1499 17.0249 14.9999 17.0249ZM10.2499 16.0248H14.7499L22.1999 5.82479C19.8999 6.57478 16.3499 7.0248 12.4999 7.0248C8.64993 7.0248 5.09991 6.57478 2.79993 5.82479L10.2499 16.0248Z" fill="white"/>
</svg>
