<svg width="26" height="26" viewBox="0 0 26 26" fill="none" xmlns="http://www.w3.org/2000/svg">
<path d="M18.4407 15.3594C18.0555 15.8408 17.574 16.3223 17.0925 16.7075L24.6518 24.2668L25.9999 22.9186L18.4407 15.3594Z" fill="#151A20"/>
<path d="M23.7851 25.6148C23.6407 25.6148 23.5444 25.5666 23.4481 25.4704L15.8407 17.9111C15.7444 17.8148 15.6963 17.6704 15.6963 17.5259C15.6963 17.3815 15.7444 17.2852 15.8889 17.1889C16.3704 16.8037 16.8037 16.3704 17.1889 15.8889C17.2852 15.7926 17.3815 15.6963 17.5259 15.6963C17.6704 15.6963 17.8148 15.7444 17.9111 15.8407L25.4703 23.4C25.6629 23.5926 25.6629 23.8815 25.4703 24.0741L24.1222 25.4222C24.0259 25.5666 23.9296 25.6148 23.7851 25.6148ZM16.9 17.5741L23.7851 24.4593L24.4592 23.7852L17.574 16.9C17.3814 17.1407 17.1407 17.3815 16.9 17.5741Z" fill="white"/>
<path d="M10.1111 20.2223C4.52593 20.2223 0 15.6963 0 10.1112C0 7.65558 0.914824 5.24819 2.55186 3.41854C2.74447 3.22593 3.03332 3.17779 3.22593 3.3704C3.41854 3.56302 3.46668 3.85186 3.27407 4.04447C1.78146 5.72965 0.962965 7.89633 0.962965 10.1112C0.962965 15.1667 5.05558 19.2593 10.1111 19.2593C15.1666 19.2593 19.2592 15.1667 19.2592 10.1112C19.2592 5.05563 15.1667 0.963016 10.1111 0.963016C8.85925 0.963016 7.60739 1.20377 6.45186 1.73337C6.21111 1.82965 5.92221 1.73337 5.82593 1.49261C5.72965 1.25186 5.82593 0.962965 6.06668 0.866684C7.36668 0.288894 8.71482 0 10.1111 0C15.6963 0 20.2222 4.52593 20.2222 10.1111C20.2222 15.6963 15.6963 20.2223 10.1111 20.2223Z" fill="white"/>
<path d="M4.81472 2.40748C4.81472 2.69638 4.62211 2.88894 4.33326 2.88894C4.04437 2.88894 3.85181 2.69633 3.85181 2.40748C3.85181 2.11864 4.04442 1.92603 4.33326 1.92603C4.62211 1.92603 4.81472 2.11859 4.81472 2.40748Z" fill="white"/>
</svg>
