<svg width="48" height="48" viewBox="0 0 48 48" fill="none" xmlns="http://www.w3.org/2000/svg">
<path d="M10.9998 16H17.1298L21.1298 8.05003C21.1827 7.92308 21.2612 7.8084 21.3604 7.71316C21.4596 7.61791 21.5773 7.54414 21.7063 7.49647C21.8353 7.44879 21.9727 7.42823 22.11 7.43607C22.2473 7.44392 22.3815 7.47999 22.5042 7.54204C22.6269 7.60408 22.7355 7.69078 22.8232 7.79669C22.9109 7.90261 22.9759 8.02548 23.0139 8.15762C23.052 8.28976 23.0624 8.42833 23.0445 8.56467C23.0266 8.70102 22.9807 8.8322 22.9098 8.95003L19.3698 16H28.6298L25.1098 9.00003C25.0389 8.8822 24.9931 8.75102 24.9752 8.61467C24.9573 8.47833 24.9677 8.33976 25.0058 8.20762C25.0438 8.07548 25.1087 7.95261 25.1964 7.8467C25.2841 7.74078 25.3927 7.65408 25.5155 7.59204C25.6382 7.52999 25.7724 7.49391 25.9097 7.48607C26.047 7.47823 26.1844 7.49879 26.3134 7.54647C26.4424 7.59414 26.5601 7.66791 26.6593 7.76315C26.7585 7.8584 26.837 7.97308 26.8898 8.10003L30.8898 16.1H36.9998C37.7955 16.1 38.5586 16.4161 39.1212 16.9787C39.6838 17.5413 39.9998 18.3044 39.9998 19.1V19.55C39.974 20.2088 39.694 20.832 39.2185 21.2888C38.7431 21.7456 38.1092 22.0005 37.4498 22L36.1298 26.15C36.4199 26.3284 36.7003 26.522 36.9698 26.73C37.931 27.4899 38.7048 28.4605 39.2315 29.5667C39.7582 30.673 40.0237 31.8855 40.0076 33.1107C39.9915 34.3358 39.6942 35.5409 39.1387 36.633C38.5831 37.7251 37.7841 38.6749 36.8033 39.4093C35.8226 40.1437 34.6862 40.643 33.4819 40.8687C32.2776 41.0944 31.0375 41.0405 29.8574 40.711C28.6772 40.3816 27.5885 39.7855 26.6752 38.9687C25.7619 38.1519 25.0485 37.1362 24.5898 36H17.9198C17.0709 35.9995 16.2441 35.7288 15.5592 35.2273C14.8742 34.7257 14.3666 34.0192 14.1098 33.21L10.5498 22C9.87435 21.9974 9.22727 21.7279 8.74963 21.2502C8.27198 20.7726 8.00247 20.1255 7.99984 19.45V19C7.99984 18.2044 8.31591 17.4413 8.87852 16.8787C9.44113 16.3161 10.2042 16 10.9998 16V16ZM31.9998 39C33.5911 39 35.1173 38.3679 36.2425 37.2427C37.3677 36.1174 37.9998 34.5913 37.9998 33C37.9999 32.0962 37.7958 31.2041 37.4027 30.3903C37.0096 29.5764 36.4378 28.8619 35.7298 28.3C35.5598 28.17 35.3898 28.07 35.2098 27.95C35.0298 27.83 34.9298 27.77 34.7798 27.69C34.6298 27.61 34.5198 27.57 34.3798 27.51L33.9098 27.31C33.7598 27.31 33.5998 27.23 33.4498 27.19L32.9798 27.08C32.6557 27.0282 32.3281 27.0014 31.9998 27C30.4085 27 28.8824 27.6322 27.7572 28.7574C26.632 29.8826 25.9998 31.4087 25.9998 33C26.0012 33.2408 26.0179 33.4813 26.0498 33.72V33.96C26.0498 34.12 26.1098 34.27 26.1498 34.42L26.2098 34.68C26.266 34.8703 26.3328 35.0572 26.4098 35.24V35.32C26.5078 35.5459 26.6179 35.7662 26.7398 35.98C27.2693 36.9053 28.0356 37.6728 28.9601 38.2036C29.8846 38.7344 30.9338 39.0093 31.9998 39V39ZM9.99984 19.45C9.99955 19.5257 10.0155 19.6005 10.0465 19.6695C10.0776 19.7385 10.123 19.8001 10.1798 19.85C10.2279 19.8991 10.2856 19.9378 10.3492 19.9636C10.4129 19.9894 10.4812 20.0018 10.5498 20C10.9745 19.9989 11.3886 20.133 11.732 20.3829C12.0754 20.6328 12.3303 20.9856 12.4598 21.39L15.9998 32.6C16.1271 33.0047 16.3798 33.3585 16.7213 33.6102C17.0629 33.8618 17.4756 33.9984 17.8998 34H24.0598V33.93C24.0199 33.6216 23.9999 33.311 23.9998 33C24.0011 32.304 24.0952 31.6112 24.2798 30.94C24.1904 30.9752 24.0958 30.9954 23.9998 31C23.7346 31 23.4803 30.8947 23.2927 30.7071C23.1052 30.5196 22.9998 30.2652 22.9998 30V24C22.9998 23.7348 23.1052 23.4805 23.2927 23.2929C23.4803 23.1054 23.7346 23 23.9998 23C24.2651 23 24.5194 23.1054 24.7069 23.2929C24.8945 23.4805 24.9998 23.7348 24.9998 24V29.13C25.7627 27.7547 26.914 26.6347 28.3098 25.91L28.9998 23.68C29.0419 23.5553 29.108 23.44 29.1946 23.3408C29.2812 23.2417 29.3864 23.1605 29.5044 23.102C29.6223 23.0435 29.7506 23.0088 29.8819 22.9999C30.0133 22.991 30.1451 23.008 30.2698 23.05C30.3946 23.092 30.5099 23.1582 30.609 23.2448C30.7082 23.3314 30.7894 23.4366 30.8479 23.5546C30.9064 23.6725 30.9411 23.8008 30.95 23.9321C30.9589 24.0635 30.9419 24.1953 30.8998 24.32L30.6298 25.12C31.0823 25.0417 31.5406 25.0016 31.9998 25C32.3346 25.0033 32.6688 25.03 32.9998 25.08H33.1998C33.5376 25.127 33.8717 25.1972 34.1998 25.29H34.2898L35.5398 21.35C35.6763 20.953 35.9341 20.609 36.2769 20.3667C36.6197 20.1244 37.0301 19.9961 37.4498 20C37.5221 20 37.5936 19.9858 37.6603 19.9582C37.727 19.9305 37.7877 19.89 37.8387 19.8389C37.8898 19.7879 37.9303 19.7272 37.958 19.6605C37.9856 19.5938 37.9998 19.5223 37.9998 19.45V19C37.9998 18.7348 37.8945 18.4805 37.7069 18.2929C37.5194 18.1054 37.2651 18 36.9998 18H31.8698L32.6298 19.52C32.8454 19.7684 32.9721 20.0816 32.9898 20.41C32.986 20.4265 32.986 20.4436 32.9898 20.46V20.46C32.9895 20.703 32.9301 20.9422 32.8169 21.1571C32.7036 21.372 32.5399 21.5562 32.3397 21.6938C32.1395 21.8315 31.9089 21.9184 31.6677 21.9472C31.4265 21.976 31.1819 21.9458 30.955 21.8592C30.728 21.7726 30.5255 21.6321 30.3648 21.4499C30.2041 21.2677 30.0901 21.0492 30.0326 20.8132C29.975 20.5772 29.9756 20.3308 30.0344 20.095C30.0931 19.8593 30.2082 19.6414 30.3698 19.46L29.6298 18H18.3698L17.6198 19.51C17.7814 19.6914 17.8966 19.9093 17.9553 20.145C18.0141 20.3808 18.0147 20.6272 17.9571 20.8632C17.8996 21.0992 17.7855 21.3177 17.6249 21.4999C17.4642 21.6821 17.2617 21.8226 17.0347 21.9092C16.8078 21.9958 16.5632 22.026 16.322 21.9972C16.0807 21.9684 15.8501 21.8815 15.65 21.7438C15.4498 21.6062 15.286 21.422 15.1728 21.2071C15.0595 20.9922 15.0002 20.753 14.9998 20.51C15.0037 20.4936 15.0037 20.4765 14.9998 20.46C15.0176 20.1316 15.1443 19.8184 15.3598 19.57L16.1298 18H10.9998C10.7346 18 10.4803 18.1054 10.2927 18.2929C10.1052 18.4805 9.99984 18.7348 9.99984 19V19.45Z" fill="#EAF4FF"/>
<path d="M17.6801 23.0501C17.8048 23.0077 17.9367 22.9904 18.0681 22.9992C18.1996 23.0079 18.328 23.0426 18.446 23.1011C18.564 23.1597 18.6693 23.2409 18.7558 23.3403C18.8423 23.4396 18.9083 23.5551 18.9501 23.6801L20.9501 29.6801C21.0003 29.8077 21.0237 29.9443 21.0189 30.0814C21.0141 30.2186 20.9811 30.3532 20.922 30.477C20.8629 30.6008 20.779 30.7111 20.6754 30.8011C20.5719 30.8911 20.4509 30.9588 20.3201 31.0001C20.2138 31.0138 20.1063 31.0138 20.0001 31.0001C19.7904 31.0006 19.5859 30.9352 19.4154 30.8132C19.245 30.6912 19.1171 30.5187 19.0501 30.3201L17.0501 24.3201C17.0077 24.1953 16.9904 24.0634 16.9992 23.932C17.0079 23.8005 17.0426 23.6721 17.1011 23.5541C17.1597 23.4361 17.2409 23.3308 17.3403 23.2443C17.4396 23.1578 17.5551 23.0918 17.6801 23.0501V23.0501Z" fill="#EAF4FF"/>
<path d="M29.5 32H31V30.5C31 30.2348 31.1054 29.9804 31.2929 29.7929C31.4804 29.6054 31.7348 29.5 32 29.5C32.2652 29.5 32.5196 29.6054 32.7071 29.7929C32.8946 29.9804 33 30.2348 33 30.5V32H34.5C34.7652 32 35.0196 32.1054 35.2071 32.2929C35.3946 32.4804 35.5 32.7348 35.5 33C35.5 33.2652 35.3946 33.5196 35.2071 33.7071C35.0196 33.8946 34.7652 34 34.5 34H33V35.5C33 35.7652 32.8946 36.0196 32.7071 36.2071C32.5196 36.3946 32.2652 36.5 32 36.5C31.7348 36.5 31.4804 36.3946 31.2929 36.2071C31.1054 36.0196 31 35.7652 31 35.5V34H29.5C29.2348 34 28.9804 33.8946 28.7929 33.7071C28.6054 33.5196 28.5 33.2652 28.5 33C28.5 32.7348 28.6054 32.4804 28.7929 32.2929C28.9804 32.1054 29.2348 32 29.5 32V32Z" fill="#EAF4FF"/>
</svg>
