<svg width="70" height="70" viewBox="0 0 70 70" fill="none" xmlns="http://www.w3.org/2000/svg">
<path d="M42 14H49V21H66.5C67.4283 21 68.3185 21.3687 68.9749 22.0251C69.6313 22.6815 70 23.5717 70 24.5V50.75L49 38.5L49.126 66.717L56.9065 59.192L63.1435 70H24.5C23.5717 70 22.6815 69.6313 22.0251 68.9749C21.3687 68.3185 21 67.4283 21 66.5V49H14V42H21V24.5C21 23.5717 21.3687 22.6815 22.0251 22.0251C22.6815 21.3687 23.5717 21 24.5 21H42V14ZM70 53.683V66.5C70.0003 66.8647 69.9436 67.2273 69.832 67.5745L62.972 55.6955L70 53.683ZM7 42V49H0V42H7ZM7 28V35H0V28H7ZM7 14V21H0V14H7ZM7 0V7H0V0H7ZM21 0V7H14V0H21ZM35 0V7H28V0H35ZM49 0V7H42V0H49Z" fill="#76ACE7"/>
</svg>
