<svg width="78" height="71" viewBox="0 0 78 71" fill="none" xmlns="http://www.w3.org/2000/svg">
<g clip-path="url(#clip0_1603_119)">
<path d="M35.1914 29.1211H42.8086V41.8789H35.1914V29.1211Z" fill="#93C3F8"/>
<path d="M36.7148 53.666C36.7148 52.5173 37.738 51.5859 39 51.5859H45.8555V46.0391H9.29297V68.9199C9.29297 70.0687 10.3161 71 11.5781 71H27.5742V61.9863C27.5742 60.8376 28.5974 59.9062 29.8594 59.9062H36.7148V53.666Z" fill="#93C3F8"/>
<path d="M50.4258 46.0391V53.666C50.4258 54.8148 49.4026 55.7461 48.1406 55.7461H41.2852V61.9863C41.2852 63.1351 40.262 64.0664 39 64.0664H32.1445V71H66.4219C67.0281 71 67.6091 70.7808 68.0376 70.3907C68.4662 70.0006 68.707 69.4716 68.707 68.9199L68.7069 46.0391H50.4258Z" fill="#93C3F8"/>
<path d="M56.5195 4.16016H58.8047V6.75915L67.9453 12.9994V4.16016H70.2305C71.4925 4.16016 72.5156 3.22884 72.5156 2.08008C72.5156 0.93132 71.4925 0 70.2305 0H56.5195C55.2575 0 54.2344 0.93132 54.2344 2.08008C54.2344 3.22884 55.2575 4.16016 56.5195 4.16016V4.16016Z" fill="#93C3F8"/>
<path d="M76.1717 23.816L43.1119 1.24628C40.6907 -0.404473 37.3091 -0.404473 34.887 1.24697L1.82828 23.816C0.67732 24.6017 0 25.8347 0 27.1442C0 30.5726 4.2999 32.5295 7.31296 30.4725L37.6289 9.77571C38.4414 9.22102 39.5586 9.22102 40.3711 9.77571L70.687 30.4726C73.7001 32.5297 78 30.5726 78 27.1444C78 25.8347 77.3227 24.6017 76.1717 23.816Z" fill="#93C3F8"/>
<path d="M68.7069 41.8788V34.3206L39 14.0396L9.29297 34.3207V41.8788H30.6211V27.0409C30.6211 25.8921 31.6442 24.9608 32.9062 24.9608H45.0938C46.3558 24.9608 47.3789 25.8921 47.3789 27.0409V41.8788H68.7069Z" fill="#93C3F8"/>
</g>
<defs>
<clipPath id="clip0_1603_119">
<rect width="78" height="71" fill="white"/>
</clipPath>
</defs>
</svg>
