<svg width="96" height="70" viewBox="0 0 96 70" fill="none" xmlns="http://www.w3.org/2000/svg">
<path fill-rule="evenodd" clip-rule="evenodd" d="M5.04448 0.244711C2.11263 1.01412 -0.0309977 3.87673 0.000339145 6.98078C0.031676 10.0995 2.37934 12.9558 5.43858 13.5972C5.95763 13.706 16.1097 13.747 41.1544 13.7412C73.7745 13.7339 76.2061 13.7173 77.0456 13.497C79.9775 12.7276 82.1211 9.86499 82.0898 6.76094C82.0584 3.64218 79.7107 0.785896 76.6515 0.144562C76.1325 0.0357475 65.9804 -0.00524734 40.9357 0.000530434C8.31555 0.00782144 5.884 0.0244672 5.04448 0.244711ZM88.5293 17.7521C88.1906 17.8185 87.535 18.0601 87.0723 18.289C86.3108 18.6655 84.5291 20.4528 68.2842 37.1371C58.4135 47.2747 50.2792 55.5693 50.2081 55.5693C50.1371 55.5693 46.258 51.8086 41.588 47.2121C36.6952 42.3965 32.7939 38.6651 32.3816 38.4071C29.2442 36.443 24.9955 38.3618 24.1973 42.1033C23.9001 43.4966 24.3291 45.3353 25.2053 46.4236C25.45 46.7276 30.4343 51.685 36.2814 57.4396C47.6642 68.6427 47.5652 68.5555 49.3131 68.9139C50.7257 69.2035 52.3474 68.8368 53.4748 67.9731C53.8369 67.6957 63.1037 58.2526 74.0679 46.9886C95.7537 24.7095 94.6175 25.9582 94.9714 24.0123C95.1467 23.0484 94.9655 21.7526 94.5232 20.8066C93.8297 19.3233 92.1519 18.0566 90.4607 17.7393C89.6211 17.5818 89.3886 17.5833 88.5293 17.7521ZM5.04448 27.7579C2.11263 28.5273 -0.0309977 31.39 0.000339145 34.494C0.031676 37.6128 2.37934 40.4691 5.43858 41.1104C6.52853 41.3389 18.7324 41.3206 18.7955 41.0904C19.4367 38.7478 20.0179 37.5238 21.1606 36.1083C22.524 34.4197 24.7388 33.0091 26.8995 32.4536C29.1766 31.8681 32.1224 32.1656 34.2714 33.1979C35.7265 33.8968 36.5882 34.6173 40.1086 38.0791L43.346 41.2624H49.9785H56.611L62.8201 34.8954C66.2351 31.3935 69.2415 28.2983 69.5008 28.0171L69.9724 27.5058L37.9587 27.5138C8.15271 27.5211 5.88291 27.538 5.04448 27.7579ZM5.04448 55.2712C2.11263 56.0406 -0.0309977 58.9032 0.000339145 62.0072C0.0320865 65.1721 2.43339 68.0465 5.53451 68.6321C6.12293 68.7432 11.1166 68.7758 23.1553 68.747L39.955 68.7068L33.0079 61.8693L26.0608 55.0318L16.0029 55.0333C6.93919 55.0347 5.85595 55.0582 5.04448 55.2712ZM67.1361 61.9086L60.4535 68.7756L68.2992 68.7677C77.0577 68.7588 77.186 68.747 78.7362 67.8091C82.6628 65.4333 83.2275 60.0019 79.8735 56.8686C78.5223 55.6064 76.8962 55.0086 74.8726 55.0303L73.8187 55.0416L67.1361 61.9086Z" fill="white"/>
</svg>
