<svg width="990" height="1003" viewBox="0 0 990 1003" fill="none" xmlns="http://www.w3.org/2000/svg">
<path d="M131.283 892.715C54.8989 959.647 -3.80716 1003.27 0.192857 1002C4.19287 1000.73 989.193 1002.5 989.193 1002.5V102.5V0C976.123 0.646685 972.838 1.16322 951.654 24.0559C925.174 52.6717 853.882 60.9169 829.439 77.4074C804.996 93.8978 781.062 116.693 746.944 188.96C712.825 261.228 675.142 247.162 595.193 301.484C560.705 324.917 516.262 383.936 509.133 434.862C502.003 485.789 396.592 515.86 363.492 565.331C330.392 614.802 334.466 709.38 297.802 769.037C261.137 828.693 207.668 825.783 131.283 892.715Z" fill="black"/>
</svg>
