<svg width="1070" height="1065" viewBox="0 0 1070 1065" fill="none" xmlns="http://www.w3.org/2000/svg">
<path d="M186.591 896.215C110.206 963.147 116.317 992.248 6.83259 1026.68C-102.652 1061.12 1139.87 1065 1139.87 1065L1147 116.798L1072.65 -3C1059.58 -2.35332 1028.15 4.66322 1006.96 27.5559C980.482 56.1717 909.189 64.4169 884.746 80.9074C860.303 97.3978 836.369 120.193 802.251 192.46C768.132 264.728 730.449 250.662 650.5 304.984C616.012 328.417 571.57 387.436 564.44 438.362C557.311 489.289 451.9 519.36 418.8 568.831C385.7 618.302 389.774 712.88 353.109 772.537C316.445 832.193 262.976 829.283 186.591 896.215Z" fill="black"/>
</svg>
