<svg width="18" height="7" viewBox="0 0 18 7" fill="none" xmlns="http://www.w3.org/2000/svg">
<path d="M9.00009 4.50008C5.55689 4.50008 2.35009 3.48812 0.421797 1.79258C0.255815 1.64668 0.154592 1.44082 0.140395 1.22028C0.126197 0.999745 0.200189 0.782602 0.346092 0.61662C0.491996 0.450639 0.697859 0.349416 0.918395 0.335219C1.13893 0.321022 1.35607 0.395013 1.52205 0.540916C3.15495 1.97648 5.95036 2.83342 9.00009 2.83342C12.0498 2.83342 14.8452 1.97648 16.4781 0.540916C16.5603 0.468672 16.6559 0.413324 16.7595 0.37803C16.8631 0.342736 16.9726 0.328189 17.0818 0.335219C17.191 0.342249 17.2977 0.370718 17.3959 0.419001C17.4941 0.467284 17.5818 0.534435 17.6541 0.61662C17.7263 0.698806 17.7817 0.794416 17.817 0.897992C17.8523 1.00157 17.8668 1.11108 17.8598 1.22028C17.8527 1.32948 17.8243 1.43622 17.776 1.53442C17.7277 1.63261 17.6606 1.72034 17.5784 1.79258C15.6501 3.48812 12.4433 4.50008 9.00009 4.50008Z" fill="#C4D4E5"/>
<path d="M8.99984 6.99992C8.77882 6.99992 8.56686 6.91212 8.41058 6.75584C8.2543 6.59956 8.1665 6.3876 8.1665 6.16659V3.66659C8.1665 3.44557 8.2543 3.23361 8.41058 3.07733C8.56686 2.92105 8.77882 2.83325 8.99984 2.83325C9.22085 2.83325 9.43281 2.92105 9.58909 3.07733C9.74537 3.23361 9.83317 3.44557 9.83317 3.66659V6.16659C9.83317 6.3876 9.74537 6.59956 9.58909 6.75584C9.43281 6.91212 9.22085 6.99992 8.99984 6.99992Z" fill="#C4D4E5"/>
<path d="M5.45712 6.72298C5.40952 6.72312 5.362 6.71904 5.31511 6.71077C5.20725 6.69229 5.10409 6.65273 5.01152 6.59435C4.91896 6.53596 4.83881 6.45991 4.77566 6.37053C4.71251 6.28115 4.6676 6.1802 4.6435 6.07345C4.61939 5.9667 4.61657 5.85625 4.63518 5.74841L5.05591 3.30258C5.07446 3.19474 5.11406 3.09162 5.17245 2.99909C5.23085 2.90657 5.3069 2.82645 5.39626 2.76331C5.48562 2.70017 5.58654 2.65525 5.69326 2.63112C5.79998 2.60698 5.9104 2.6041 6.01824 2.62265C6.12607 2.64119 6.22919 2.68079 6.32172 2.73919C6.41425 2.79758 6.49437 2.87363 6.5575 2.96299C6.62064 3.05235 6.66556 3.15327 6.68969 3.25999C6.71383 3.36671 6.71671 3.47714 6.69816 3.58497L6.27743 6.03085C6.24416 6.22437 6.14362 6.39993 5.99354 6.52656C5.84346 6.65318 5.65348 6.72275 5.45712 6.72298V6.72298Z" fill="#C4D4E5"/>
<path d="M2.02983 5.58855C1.89635 5.58835 1.76487 5.55612 1.64643 5.49457C1.52798 5.43303 1.42603 5.34396 1.34914 5.23486C1.27224 5.12575 1.22265 4.99979 1.20451 4.86754C1.18638 4.7353 1.20024 4.60064 1.24493 4.47486L2.06036 2.18767C2.09712 2.08459 2.15383 1.98977 2.22724 1.90861C2.30065 1.82745 2.38933 1.76154 2.48821 1.71465C2.58709 1.66776 2.69424 1.6408 2.80354 1.63532C2.91284 1.62984 3.02215 1.64594 3.12522 1.68271C3.2283 1.71947 3.32312 1.77618 3.40428 1.84959C3.48545 1.923 3.55135 2.01168 3.59824 2.11056C3.64513 2.20944 3.67209 2.31659 3.67757 2.42589C3.68305 2.53519 3.66695 2.64449 3.63018 2.74757L2.81475 5.03476C2.75697 5.19673 2.65054 5.33687 2.51003 5.43601C2.36952 5.53514 2.2018 5.58842 2.02983 5.58855Z" fill="#C4D4E5"/>
<path d="M12.5426 6.723C12.3463 6.72277 12.1563 6.6532 12.0062 6.52657C11.8561 6.39994 11.7556 6.22438 11.7223 6.03086L11.3016 3.58497C11.2642 3.3672 11.3148 3.14346 11.4423 2.96299C11.5698 2.78252 11.7638 2.6601 11.9815 2.62265C12.1993 2.5852 12.423 2.6358 12.6035 2.76331C12.784 2.89082 12.9064 3.0848 12.9439 3.30258L13.3646 5.74846C13.3832 5.8563 13.3804 5.96675 13.3563 6.0735C13.3322 6.18024 13.2872 6.28119 13.2241 6.37056C13.1609 6.45994 13.0808 6.53599 12.9882 6.59437C12.8957 6.65275 12.7925 6.69231 12.6847 6.71079C12.6378 6.71906 12.5903 6.72314 12.5426 6.723V6.723Z" fill="#C4D4E5"/>
<path d="M15.9701 5.58852C15.7981 5.58845 15.6303 5.53519 15.4898 5.43604C15.3493 5.3369 15.2429 5.19673 15.1852 5.03473L14.3697 2.74756C14.333 2.64449 14.3169 2.53518 14.3223 2.42588C14.3278 2.31658 14.3548 2.20943 14.4017 2.11055C14.4964 1.91085 14.6665 1.75695 14.8747 1.68271C15.0829 1.60846 15.312 1.61995 15.5117 1.71465C15.7114 1.80935 15.8653 1.9795 15.9395 2.18767L16.755 4.47486C16.7997 4.60064 16.8135 4.7353 16.7954 4.86755C16.7773 4.99979 16.7277 5.12575 16.6508 5.23486C16.5739 5.34396 16.4719 5.43303 16.3535 5.49457C16.235 5.55612 16.1035 5.58835 15.9701 5.58856L15.9701 5.58852Z" fill="#C4D4E5"/>
</svg>
