<svg width="20" height="17" viewBox="0 0 20 17" fill="none" xmlns="http://www.w3.org/2000/svg">
<path fill-rule="evenodd" clip-rule="evenodd" d="M12.5981 1.5C11.4434 -0.499999 8.55663 -0.500001 7.40193 1.5L1.33975 12C0.185049 14 1.62842 16.5 3.93782 16.5H16.0622C18.3716 16.5 19.815 14 18.6603 12L12.5981 1.5ZM10.8696 11.1245L11.1108 4.75781H8.99707L9.23828 11.1245H10.8696ZM9.24463 12.3813C9.0415 12.576 8.93994 12.8151 8.93994 13.0986C8.93994 13.3864 9.0415 13.6276 9.24463 13.8223C9.44775 14.0127 9.71647 14.1079 10.0508 14.1079C10.3809 14.1079 10.6453 14.0127 10.8442 13.8223C11.0474 13.6276 11.1489 13.3864 11.1489 13.0986C11.1489 12.8151 11.0474 12.576 10.8442 12.3813C10.6453 12.1867 10.3809 12.0894 10.0508 12.0894C9.71647 12.0894 9.44775 12.1867 9.24463 12.3813Z" fill="#FFDF93"/>
</svg>
