<svg width="56" height="52" viewBox="0 0 56 52" fill="none" xmlns="http://www.w3.org/2000/svg">
<path d="M13.9017 1H2C0.895431 1 0 1.89445 0 2.99902V4.5C0 7 2.5 4.5 2.5 9.5C2.5 12.5327 1.54195 12.7871 0.715404 13.0959C0.218527 13.2816 0 13.798 0 14.3284V16.6716C0 17.202 0.218527 17.7184 0.715403 17.9041C1.54195 18.2129 2.5 18.4673 2.5 21.5C2.5 24.8767 1.56155 24.9688 0.740945 25.1565C0.223865 25.2748 0 25.798 0 26.3284V28.8676C0 29.5701 0.41668 30.0855 1.09204 30.2789C1.80748 30.4839 2.5 31.0993 2.5 34C2.5 37.9661 1.07588 37.4009 0.281542 38.1238C0.0519098 38.3328 0 38.6616 0 38.9721V39.8949C0 40.5826 0.353376 41.2221 0.935656 41.5881L17.012 51.6933C17.3309 51.8937 17.6998 52 18.0764 52H30C31.1046 52 32 51.1046 32 50V40.5C32 39.3954 32.8954 38.5 34 38.5H40C41.1046 38.5 42 39.3954 42 40.5V50C42 51.1046 42.8954 52 44 52H54C55.1046 52 56 51.1046 56 50V42.5V14.5585C56 13.2667 55.3761 12.0544 54.325 11.3035L39.0215 0.372533C38.6823 0.130246 38.2759 0 37.8591 0H28.1507C27.175 0 26.7769 1.2543 27.574 1.81697L41.1534 11.4024C41.6843 11.7771 42 12.3865 42 13.0363V20C42 21.1046 41.1046 22 40 22H34C32.8954 22 32 21.1046 32 20V13.5789C32 12.9055 31.6611 12.2773 31.0984 11.9075L15 1.32859C14.6738 1.11422 14.292 1 13.9017 1Z" fill="#76ACE7"/>
<path d="M42 33.5001V29.5002C42 26.7002 38.6667 25.8335 37 26.0002C34.2 26.0001 32.5 28 32.5 29.5002V33.5001H35V31L39.5 31.0001V33.5001H42Z" fill="#2C3641"/>
<path d="M15.9396 38.5868L15.833 43.9363C15.8187 44.6509 15.0335 45.0785 14.4246 44.7032L5.56499 39.2434C5.18909 39.0117 5.00922 38.5616 5.11501 38.1334C5.28159 37.4593 5.5025 36.507 5.50916 36.1728C5.51486 35.8868 5.39396 34.5342 5.27937 33.3288C5.20098 32.5044 6.099 31.9431 6.80443 32.3778L15.4634 37.714C15.7655 37.9002 15.9466 38.2322 15.9396 38.5868Z" fill="#2C3641"/>
<path d="M15.9307 25.5451L15.8742 30.8954C15.8666 31.6102 15.0855 32.045 14.473 31.6754L5.56275 26.2988C5.1847 26.0707 5.00061 25.6223 5.1024 25.1931C5.26266 24.5175 5.47464 23.5632 5.47818 23.2289C5.4812 22.9429 5.34765 21.5914 5.22178 20.3872C5.13568 19.5635 6.0284 18.9939 6.73787 19.422L15.4464 24.6769C15.7502 24.8602 15.9345 25.1905 15.9307 25.5451Z" fill="#2C3641"/>
<path d="M15.9201 12.4968L15.922 17.8473C15.9223 18.5622 15.1459 19.0055 14.5295 18.6427L5.56094 13.3638C5.18042 13.1398 4.99145 12.6934 5.08854 12.2632C5.24139 11.5858 5.44294 10.6293 5.44282 10.295C5.44271 10.0089 5.29439 8.659 5.15536 7.45626C5.06027 6.63356 5.94671 6.05419 6.66082 6.47452L15.4262 11.6339C15.732 11.8139 15.9199 12.1422 15.9201 12.4968Z" fill="#2C3641"/>
</svg>
