<svg width="94" height="95" viewBox="0 0 94 95" fill="none" xmlns="http://www.w3.org/2000/svg">
<path d="M15 37.5V56.5219C15 56.7655 14.911 57.0008 14.7498 57.1835L10.5 62C5.3 67.8 4.7 71.7 8.2 75C10.2 76.9 11.6 77 28.7 77H46C46.5523 77 47 76.5523 47 76V74V72C47 71.4477 46.5523 71 46 71H29.5C10.1 71 9.5 70.8 15.3 65.2L18.3091 62.2821C18.4957 62.1012 18.7453 62 19.0052 62H33.2C47 62 47.9 61.9 48.5 60C48.8 58.9 48.8 57.6 48.5 57C48.1 56.4 42.2 56 33.9 56H21C20.4477 56 20 55.5523 20 55V40V25C20 24.4477 20.4477 24 21 24H47H73C73.5523 24 74 24.4477 74 25V27C74 29.5 74.4 30 76.5 30C78.9 30 79 29.7 79 24V19C79 18.4477 78.5523 18 78 18H47H16C15.4477 18 15 18.4477 15 19V37.5Z" fill="#E6E6E4"/>
<mask id="mask0_713_121" style="mask-type:alpha" maskUnits="userSpaceOnUse" x="52" y="36" width="37" height="41">
<path d="M62 40C62 43.8 61.8 44 59 44C56.2 44 56 44.3 56 47.7C56 49.8 55.5 53.3 55 55.5C54.5 57.6 53.8 63.4 53.4 68.2L52.9576 73.7621C52.8188 75.5072 54.1975 77 55.9481 77H70.5H85.0657C86.8113 77 88.1883 75.5155 88.0573 73.7748L87.6 67.7C87.2 62.7 86.4 55.2 85.8 51.2C84.6 44.2 84.5 44 81.8 44C79.2 44 79 43.7 79 40V39C79 37.3431 77.6569 36 76 36H70.5H65C63.3432 36 62 37.3431 62 39V40ZM73.8 42.7C74 43.6 73.1 44 71.1 44C69 44 68 43.5 68 42.4C68 40.5 73.1 40.8 73.8 42.7ZM80.1 53.5C80.5 55.1 81 59.8 81.3 63.7L81.5266 67.8359C81.6208 69.5546 80.2525 71 78.5311 71H70.5H62.4287C60.6852 71 59.3089 69.5188 59.4368 67.78L59.7 64.2C60 60.5 60.6 55.8 61.1 53.7L61.4899 52.2183C61.8467 50.8626 63.0948 49.9347 64.4958 49.9836L70.7 50.2L77.1039 50.4208C78.4588 50.4675 79.614 51.4171 79.9221 52.7374L80.1 53.5Z" fill="#E6E6E4"/>
</mask>
<g mask="url(#mask0_713_121)">
<rect x="70" y="36" width="18" height="41" fill="#E6E6E4"/>
</g>
<mask id="mask1_713_121" style="mask-type:alpha" maskUnits="userSpaceOnUse" x="54" y="36" width="36" height="41">
<path d="M80.3 40C80.3 43.8 80.5 44 83.3 44C86.1 44 86.3 44.3 86.3 47.7C86.3 49.8 86.8 53.3 87.3 55.5C87.8 57.6 88.5 63.4 88.9 68.2L89.3424 73.7621C89.4812 75.5072 88.1025 77 86.3519 77H71.8H57.2343C55.4887 77 54.1117 75.5155 54.2427 73.7748L54.7 67.7C55.1 62.7 55.9 55.2 56.5 51.2C57.7 44.2 57.8 44 60.5 44C63.1 44 63.3 43.7 63.3 40V39C63.3 37.3431 64.6431 36 66.3 36H71.8H77.3C78.9568 36 80.3 37.3431 80.3 39V40ZM68.5 42.7C68.3 43.6 69.2 44 71.2 44C73.3 44 74.3 43.5 74.3 42.4C74.3 40.5 69.2 40.8 68.5 42.7ZM62.2 53.5C61.8 55.1 61.3 59.8 61 63.7L60.7734 67.8359C60.6792 69.5546 62.0475 71 63.7689 71H71.8H79.8713C81.6148 71 82.9911 69.5188 82.8632 67.78L82.6 64.2C82.3 60.5 81.7 55.8 81.2 53.7L80.81 52.2183C80.4533 50.8626 79.2052 49.9347 77.8042 49.9836L71.6 50.2L65.1961 50.4208C63.8412 50.4675 62.686 51.4171 62.3779 52.7374L62.2 53.5Z" fill="#E6E6E4"/>
</mask>
<g mask="url(#mask1_713_121)">
<rect width="18" height="41" transform="matrix(-1 0 0 1 72.3 36)" fill="#E6E6E4"/>
</g>
<path d="M48.5 56H20.6667C20.263 56 19.8989 56.2427 19.7436 56.6154L18.0769 60.6154C17.8025 61.2741 18.2864 62 19 62H48.5C49.0523 62 49.5 61.5523 49.5 61V57C49.5 56.4477 49.0523 56 48.5 56Z" fill="#E6E6E4"/>
</svg>
