<svg width="17" height="15" viewBox="0 0 17 15" fill="none" xmlns="http://www.w3.org/2000/svg">
<path d="M8.63385 14.1876C5.25165 14.1876 2.15028 11.8092 0.338168 7.82583C0.291648 7.72352 0.267578 7.61244 0.267578 7.50006C0.267578 7.38767 0.291648 7.27659 0.338168 7.17429C2.15028 3.19087 5.25165 0.8125 8.63385 0.8125C12.016 0.8125 15.1174 3.19087 16.9295 7.17429C16.976 7.27652 17.0001 7.38752 17.0002 7.49983C17.0002 7.61214 16.9763 7.72316 16.9299 7.82545C16.6181 8.51444 16.252 9.17755 15.835 9.80852C15.7782 9.8954 15.7048 9.97019 15.619 10.0286C15.5332 10.087 15.4366 10.1278 15.335 10.1487C15.2333 10.1696 15.1285 10.1702 15.0266 10.1504C14.9247 10.1306 14.8277 10.0909 14.7412 10.0334C14.6547 9.976 14.5805 9.90203 14.5227 9.81578C14.465 9.72952 14.4249 9.6327 14.4047 9.53087C14.3845 9.42905 14.3847 9.32424 14.4052 9.22248C14.4258 9.12073 14.4662 9.02404 14.5243 8.93799C14.829 8.47734 15.1029 7.99697 15.3441 7.50006C13.7817 4.29035 11.293 2.38604 8.63385 2.38604C5.97465 2.38604 3.486 4.29035 1.92362 7.50006C3.486 10.7098 5.97465 12.6141 8.63385 12.6141C10.09 12.5864 11.491 12.0525 12.5961 11.1039C12.7578 10.972 12.9653 10.9097 13.1729 10.9307C13.3806 10.9517 13.5714 11.0544 13.7033 11.2161C13.8352 11.3778 13.8975 11.5853 13.8765 11.7929C13.8555 12.0005 13.7528 12.1913 13.5911 12.3233C12.2058 13.5024 10.4528 14.1617 8.63385 14.1876Z" fill="#C4D4E5"/>
<path d="M8.6339 10.6472C8.17033 10.6468 7.71257 10.544 7.29328 10.3463C6.87399 10.1486 6.50351 9.86077 6.20827 9.50337C5.91303 9.14597 5.70032 8.72782 5.58531 8.27874C5.47029 7.82967 5.45581 7.36074 5.54291 6.90542C5.58203 6.70043 5.70099 6.51937 5.87361 6.40208C6.04623 6.28479 6.25837 6.24088 6.46337 6.28C6.66836 6.31913 6.84942 6.43809 6.96671 6.61071C7.084 6.78332 7.12791 6.99547 7.08879 7.20046C7.04705 7.41579 7.05078 7.63747 7.09975 7.85127C7.14872 8.06508 7.24184 8.26628 7.37314 8.44198C7.50444 8.61768 7.67102 8.76399 7.86219 8.87153C8.05336 8.97906 8.26489 9.04545 8.48323 9.06643C8.70156 9.0874 8.92187 9.06251 9.13001 8.99334C9.33816 8.92417 9.52955 8.81226 9.6919 8.66477C9.85425 8.51729 9.98398 8.3375 10.0728 8.13693C10.1615 7.93636 10.2074 7.71945 10.2074 7.50011C10.2001 7.07799 10.0262 6.67588 9.7237 6.38137C9.4212 6.08686 9.01459 5.9238 8.59242 5.92772C8.38697 5.92925 8.18848 5.85339 8.03642 5.71522C7.88437 5.57705 7.7899 5.38671 7.77182 5.18206C7.76261 5.08097 7.77381 4.97906 7.80475 4.88238C7.83568 4.7857 7.88573 4.69622 7.95191 4.61925C8.01809 4.54229 8.09906 4.4794 8.19001 4.43433C8.28096 4.38925 8.38005 4.36291 8.48137 4.35687L8.6339 4.35303C9.46856 4.35303 10.269 4.68459 10.8592 5.27479C11.4494 5.86498 11.781 6.66545 11.781 7.50011C11.781 8.33477 11.4494 9.13525 10.8592 9.72544C10.269 10.3156 9.46856 10.6472 8.6339 10.6472Z" fill="#C4D4E5"/>
</svg>
