<svg width="82" height="82" viewBox="0 0 82 82" fill="none" xmlns="http://www.w3.org/2000/svg">
<path d="M35.8748 17.4967V61.4999H46.1248V17.4967L52.7515 24.1233L59.9982 16.8766L44.6232 1.50156C42.6193 -0.502312 39.3803 -0.502312 37.3765 1.50156L22.0015 16.8766L29.2482 24.1233L35.8748 17.4967Z" fill="white"/>
<path d="M76.875 30.75H51.25V41H71.75V71.75H10.25V41H30.75V30.75H5.125C2.296 30.75 0 33.046 0 35.875V76.875C0 79.704 2.296 82 5.125 82H76.875C79.704 82 82 79.704 82 76.875V35.875C82 33.046 79.704 30.75 76.875 30.75Z" fill="white"/>
</svg>
