<svg width="67" height="67" viewBox="0 0 67 67" fill="none" xmlns="http://www.w3.org/2000/svg">
<path d="M32.5179 66.515L33.2954 65.7423C33.4882 65.5507 33.6836 65.3564 33.8813 65.1616L34.0027 65.0408L34.3005 64.7448C34.76 64.2894 35.2108 63.8404 35.6148 63.441C36.1967 62.8714 36.775 62.298 37.3495 61.7209C38.7362 60.3605 39.9019 59.1699 41.2108 57.8389L46.4948 52.4137C46.7714 52.1318 47.0202 51.8804 47.2511 51.6475C47.6529 51.2568 48.034 50.8922 48.4783 50.47C50.0345 48.9963 51.579 47.5104 53.1117 46.0122C54.4157 44.7351 55.8285 43.3317 57.2485 41.9218C58.4436 40.7366 59.6675 39.5172 60.861 38.3342L61.6064 37.5789C62.8472 36.3208 64.0722 35.0807 65.3305 33.8057L66.4396 32.688L66.5915 32.5346L66.4396 32.3844C63.4303 29.4057 60.445 26.4656 57.3601 23.3639L56.0055 22.0187L51.1903 17.234C48.8788 14.9218 46.5531 12.6238 44.2135 10.3401C41.4836 7.68349 38.8424 5.04324 36.1304 2.30124C35.3704 1.52146 34.6778 0.81297 33.9591 0.076726L33.8845 0L33.8067 0.0772702C33.4942 0.381998 33.1751 0.692167 32.8452 1.01485C32.6497 1.20803 32.4482 1.40664 32.2495 1.60417C32.204 1.6487 32.1583 1.69296 32.1123 1.73695C31.1551 2.68378 30.1419 3.68612 29.1379 4.67757L29.0753 4.73797C28.5935 5.21139 28.1138 5.68317 27.6314 6.16094C26.8849 6.8946 26.1419 7.63176 25.4024 8.37239C24.9314 8.84091 24.4539 9.31813 23.9585 9.82093C23.4864 10.2954 22.9643 10.8189 22.4601 11.3244C22.1465 11.6362 21.8356 11.9459 21.5318 12.2511C19.9812 13.7971 18.5552 15.2505 17.1603 16.6708L12.4855 21.461C12.3113 21.6406 12.111 21.8452 11.91 22.0487C10.8603 23.0826 9.81605 24.1083 8.9656 24.9142L7.49827 26.329C6.97505 26.8334 6.46706 27.3346 5.96507 27.8352C5.57753 28.2157 5.19186 28.5981 4.80809 28.9823C3.52479 30.2535 2.30356 31.5099 1.07743 32.7517C0.676708 33.1571 0.18397 33.6833 0.152391 33.7377C0.095223 33.8373 0.015187 33.9597 0.00974243 34.0076C-0.0474261 33.9886 0.148036 34.2253 0.568905 34.6894C1.63877 35.8653 2.82134 37.1479 5.45001 39.7767C6.37723 40.7655 7.61533 41.98 8.82622 43.187L11.8355 46.2032L12.6957 47.0478L13.7389 48.067C14.8512 49.1634 15.9946 50.2893 17.0852 51.3651C18.3603 52.615 19.7884 54.0309 20.6285 54.7998C20.7135 54.8776 20.9802 55.1415 21.1697 55.3287C23.457 57.5973 25.6817 59.7946 28.0223 62.1802L32.2778 66.5155L32.396 66.6363L32.5179 66.515ZM4.94692 29.3681C5.89134 28.4287 6.84492 27.4985 7.80753 26.5777L8.44237 25.9378L8.55943 25.8257L8.98683 25.3947C9.08974 25.2957 9.19209 25.1988 9.29173 25.1036L9.94672 24.4435C10.7923 23.5865 11.6324 22.7343 12.4872 21.8762C12.6679 21.6993 12.8443 21.523 13.0273 21.3445C13.2481 21.1278 13.4668 20.9088 13.6834 20.6877C13.7166 20.6556 13.746 20.6246 13.7792 20.5931C13.856 20.519 13.9409 20.4342 14.0324 20.3427C14.1919 20.1855 14.3492 20.0299 14.512 19.8704C14.8077 19.5826 15.252 19.1271 15.6255 18.7505L17.3176 17.0435L20.022 14.3309C21.2683 13.0826 22.5134 11.8245 23.7608 10.5773C24.0586 10.2835 24.3565 9.98799 24.6554 9.69741C24.8062 9.54178 24.9613 9.3867 25.116 9.23161C25.214 9.13693 25.3109 9.04007 25.4073 8.94593L25.4519 8.90022C25.6806 8.67494 25.9103 8.44694 26.1401 8.22329C26.2103 8.15092 26.2838 8.07855 26.3546 8.00672C26.5174 7.84619 26.678 7.6824 26.8408 7.51806L26.8664 7.49249C27.4768 6.88956 28.1051 6.28283 28.7176 5.64399C28.8984 5.45462 29.3492 5.01331 29.6693 4.69661C30.5655 3.80148 31.4845 2.88512 32.4003 1.97311C32.9301 2.51128 33.4533 3.04292 33.9624 3.5615L34.7045 4.2972L42.6046 12.1657L47.8141 17.3542C49.9739 19.5047 52.1431 21.6389 54.3187 23.8487L56.0501 25.5726C56.887 26.4025 57.8006 27.2933 58.5383 28.0426C60.5643 30.0973 62.5368 32.0356 64.523 34.0125L64.0733 34.4631C62.4323 36.1124 60.8 37.7563 59.1623 39.4024L51.4304 47.1283L51.1848 47.3753C51.0155 47.5435 50.8478 47.7116 50.6785 47.8809C50.3235 48.2337 49.9728 48.5909 49.6266 48.9523C49.1202 49.4839 48.5665 50.039 47.9763 50.6294C46.9064 51.6861 46.0772 52.5078 45.0253 53.5477L44.5086 54.0668C44.4308 54.1446 44.3535 54.2192 44.2734 54.2992C42.5137 56.0661 40.8112 57.7763 39.0978 59.4959C37.3348 61.2704 35.6045 63.01 33.872 64.753C32.9807 63.8682 32.0835 62.9747 31.1775 62.0746C30.2459 61.1463 29.3601 60.3061 28.3691 59.2782C28.2455 59.1585 27.9172 58.8358 27.6739 58.5964L26.1701 57.107C24.3859 55.3037 22.6044 53.5053 20.8414 51.7253L18.7305 49.5694L12.3298 43.1532L9.8596 40.6817C9.07614 39.9042 8.29321 39.1263 7.5108 38.3478C6.00595 36.8508 4.49123 35.3638 2.96672 33.8868C2.25837 33.2012 1.81845 32.7909 1.61536 32.6222C2.73466 31.5465 3.84522 30.4618 4.94692 29.3681ZM65.2749 33.2599L64.8252 33.7105C64.8215 33.7138 64.818 33.7175 64.8149 33.7214C61.853 30.79 58.9129 27.8924 55.8748 24.8391L54.5202 23.4934C52.9146 21.8979 51.3128 20.3074 49.705 18.7086C47.2816 16.2899 44.8538 13.8847 42.7282 11.8153C40.0081 9.16167 37.3136 6.48194 34.6451 3.77645C33.9466 3.05925 33.3041 2.40136 32.647 1.72715L33.1522 1.22163C33.6831 1.7598 34.2052 2.29253 34.7154 2.80948C34.8918 2.9847 35.2032 3.29432 35.4575 3.54518C38.0905 6.16801 40.7246 8.79193 43.3565 11.4153C45.1173 13.1664 46.8318 14.8751 48.566 16.6028C50.7269 18.7527 52.895 20.8869 55.0706 23.0967L56.802 24.8206C57.6389 25.651 58.5525 26.5418 59.2902 27.2905C61.3151 29.3447 63.2898 31.2836 65.2749 33.2599ZM1.5718 32.6646C1.66327 32.7778 1.82389 32.9623 2.05474 33.2148C3.12352 34.3907 4.30609 35.6733 6.93476 38.3026C7.86197 39.2914 9.10008 40.5059 10.311 41.7134L13.3202 44.7297L14.1815 45.5742L15.2236 46.5939C16.336 47.6904 17.4788 48.8152 18.5699 49.8915C19.845 51.1409 21.2732 52.5573 22.1133 53.3268C22.1982 53.4041 22.465 53.668 22.6545 53.8562C24.9417 56.1237 27.1664 58.321 29.5082 60.7066C30.884 62.1078 32.1972 63.4475 33.6744 64.9521C33.498 65.129 33.3227 65.3064 33.1468 65.4838L30.4446 62.7978C29.5131 61.8689 28.6272 61.0293 27.6352 60.0014L26.941 59.3196C26.4423 58.8255 25.9169 58.3047 25.4383 57.8291C23.6519 56.0269 21.8715 54.2279 20.1096 52.4491C19.379 51.703 18.7196 51.0315 17.9977 50.2926C15.8743 48.1633 13.7335 46.0182 11.5981 43.8764L9.12676 41.4049C8.41297 40.6969 7.57232 39.8605 6.77686 39.0704C5.27242 37.573 3.75769 36.086 2.23278 34.6094C1.50647 33.9069 1.05892 33.4896 0.864003 33.3296C1.0709 33.138 1.30937 32.9144 1.5718 32.6646ZM36.1887 2.82308C38.8228 5.44592 41.458 8.07038 44.0888 10.6916C45.8485 12.4449 47.5641 14.1524 49.2983 15.8796C51.4581 18.0306 53.6273 20.1648 55.8029 22.3741C56.3218 22.8916 56.9567 23.5228 57.5343 24.098C58.3712 24.9283 59.2848 25.8191 60.0225 26.5668C62.0485 28.6226 64.0211 30.5609 66.0072 32.5373L65.5711 32.9748C62.6076 30.0412 59.6648 27.142 56.6256 24.0865C54.5692 22.0434 52.5126 20.0004 50.4558 17.9577C48.1446 15.6453 45.8189 13.3472 43.479 11.0638C40.7491 8.40667 38.1079 5.76588 35.3971 3.02388L33.3978 0.976217L33.8807 0.495182L35.4461 2.08738C35.6241 2.2626 35.9355 2.57277 36.1887 2.82308ZM26.8838 60.7529L26.1897 60.0716L24.6859 58.5812C22.9006 56.7778 21.1202 54.9794 19.3572 53.2C18.6265 52.4545 17.9694 51.7825 17.2452 51.044L10.8467 44.6274L8.3754 42.1563L6.0255 39.8219C4.52101 38.3249 3.00665 36.8379 1.48251 35.3609C0.638052 34.5436 0.172537 34.1153 0.0396878 34.025C0.0707222 34.0136 0.125713 33.9771 0.213916 33.9064C0.347853 33.7986 0.559649 33.6109 0.823169 33.3682C0.911372 33.4798 1.07852 33.6702 1.3219 33.9379C2.39067 35.1139 3.57325 36.3964 6.20191 39.0258C7.12913 40.0145 8.36723 41.2291 9.57921 42.436C10.5756 43.4362 11.5828 44.4451 12.5874 45.4523L13.4487 46.2968L14.4908 47.3171L17.8382 50.6136C19.1133 51.8646 20.5414 53.28 21.3804 54.0494C21.4654 54.1272 21.7321 54.3912 21.9216 54.5789C24.21 56.8469 26.4347 59.0442 28.7753 61.4293L32.9492 65.6824L32.396 66.2374C31.4953 65.3412 30.5942 64.4453 29.6927 63.5498C28.7622 62.6199 27.8764 61.7797 26.8838 60.7529Z" fill="white"/>
<path d="M21.0637 44.7541L18.3352 45.1369V46.2611H26.2669V45.1369L23.4762 44.7828V23.4028L26.1424 23.1779V21.9245H18.3974V23.1779L21.0637 23.4028V44.7541ZM32.5663 44.7541L29.8043 45.1369V46.2611H46.9553L47.6302 41.4435L46.5053 41.123L45.0597 44.5915L34.974 44.8498V34.0952L41.3021 34.1909L41.6563 36.7264H42.9727V30.1101H41.6563L41.3021 32.6169L34.974 32.7126V23.2736L44.4183 23.465L45.031 26.2924H46.4096L45.9596 21.9245H29.8665V23.1779L32.5663 23.4363V44.7541Z" fill="white"/>
</svg>
