<svg width="224" height="67" viewBox="0 0 224 67" fill="none" xmlns="http://www.w3.org/2000/svg">
<path d="M32.3548 66.0349L33.1284 65.2678C33.3202 65.0776 33.5146 64.8847 33.7113 64.6913L33.8321 64.5714L34.1284 64.2775C34.5856 63.8254 35.0342 63.3797 35.4362 62.9831C36.0151 62.4176 36.5905 61.8484 37.1621 61.2755C38.5419 59.9249 39.7017 58.7429 41.0041 57.4215L46.2616 52.0354C46.5368 51.7556 46.7843 51.506 47.014 51.2748C47.4138 50.8869 47.793 50.5249 48.2351 50.1057C49.7835 48.6427 51.3203 47.1675 52.8452 45.6801C54.1427 44.4122 55.5484 43.019 56.9613 41.6192C58.1504 40.4426 59.3682 39.232 60.5557 38.0575L61.2973 37.3077C62.5319 36.0587 63.7508 34.8275 65.0027 33.5617L66.1062 32.4521L66.2574 32.2998L66.1062 32.1506C63.1121 29.1934 60.1418 26.2746 57.0723 23.1953L55.7245 21.8598L50.9334 17.1096C48.6335 14.8141 46.3196 12.5327 43.9917 10.2654C41.2755 7.62803 38.6475 5.00684 35.9492 2.28463C35.1929 1.51048 34.5038 0.807102 33.7888 0.0761723L33.7145 0L33.6371 0.0767125C33.3261 0.379241 33.0087 0.687171 32.6804 1.00753C32.4859 1.19931 32.2855 1.39649 32.0877 1.59259C32.0425 1.6368 31.997 1.68074 31.9512 1.72441C30.9988 2.66441 29.9907 3.65951 28.9917 4.64381L28.9294 4.70377C28.45 5.17377 27.9727 5.64215 27.4928 6.11647C26.75 6.84484 26.0107 7.57667 25.2749 8.31196C24.8063 8.7771 24.3312 9.25088 23.8383 9.75005C23.3686 10.2211 22.849 10.7408 22.3474 11.2427C22.0354 11.5523 21.726 11.8596 21.4238 12.1627C19.8809 13.6975 18.4621 15.1405 17.0742 16.5505L12.4229 21.3061C12.2496 21.4844 12.0502 21.6875 11.8503 21.8895C10.8058 22.916 9.7668 23.9343 8.92062 24.7344L7.46065 26.139C6.94005 26.6398 6.43462 27.1373 5.93514 27.6343C5.54954 28.012 5.16581 28.3917 4.78396 28.7731C3.50711 30.0351 2.292 31.2825 1.07203 32.5153C0.673313 32.9178 0.183047 33.4402 0.151627 33.4942C0.0947452 33.5931 0.0151109 33.7146 0.00969355 33.7621C-0.0471881 33.7432 0.147293 33.9782 0.566051 34.4391C1.63055 35.6065 2.80719 36.8798 5.42266 39.4897C6.34523 40.4713 7.57713 41.677 8.78193 42.8753L11.7761 45.8698L12.632 46.7082L13.67 47.72C14.7767 48.8086 15.9144 49.9263 16.9994 50.9944C18.2682 52.2353 19.6891 53.641 20.525 54.4043C20.6095 54.4816 20.875 54.7436 21.0635 54.9294C23.3393 57.1816 25.5528 59.3631 27.8817 61.7314L32.1159 66.0354L32.2334 66.1554L32.3548 66.0349V66.0349ZM4.92211 29.1562C5.86178 28.2235 6.81058 27.3 7.76836 26.3859L8.40001 25.7506L8.51649 25.6393L8.94175 25.2114C9.04413 25.1131 9.14598 25.0169 9.24511 24.9224L9.89682 24.2671C10.7381 23.4162 11.574 22.5702 12.4245 21.7183C12.6044 21.5427 12.7799 21.3677 12.9619 21.1905C13.1817 20.9753 13.3993 20.7579 13.6147 20.5384C13.6478 20.5066 13.677 20.4758 13.7101 20.4444C13.7864 20.371 13.871 20.2867 13.962 20.1959C14.1207 20.0398 14.2772 19.8853 14.4392 19.727C14.7334 19.4412 15.1754 18.989 15.5471 18.6152L17.2308 16.9205L19.9215 14.2275C21.1616 12.9882 22.4005 11.7392 23.6416 10.501C23.9379 10.2092 24.2343 9.9159 24.5317 9.62742C24.6817 9.47291 24.8361 9.31895 24.99 9.16498C25.0875 9.07098 25.1839 8.97482 25.2798 8.88136L25.3242 8.83599C25.5517 8.61233 25.7804 8.38597 26.009 8.16394C26.0788 8.09209 26.152 8.02024 26.2224 7.94893C26.3844 7.78956 26.5442 7.62695 26.7062 7.4638L26.7316 7.43841C27.3389 6.83984 27.9641 6.23748 28.5735 5.60325C28.7534 5.41525 29.2019 4.97713 29.5205 4.66272C30.4121 3.77404 31.3266 2.86429 32.2378 1.95887C32.7649 2.49316 33.2855 3.02096 33.792 3.5358L34.5304 4.26619L42.3909 12.0779L47.5742 17.229C49.7232 19.364 51.8815 21.4827 54.0462 23.6766L55.7689 25.3881C56.6016 26.2119 57.5106 27.0963 58.2446 27.8402C60.2604 29.8801 62.2231 31.8044 64.1993 33.767L63.7519 34.2143C62.1191 35.8518 60.495 37.4838 58.8655 39.118L51.1723 46.7882L50.928 47.0334C50.7595 47.2003 50.5927 47.3673 50.4242 47.5353C50.071 47.8856 49.7221 48.2402 49.3776 48.599C48.8738 49.1268 48.3228 49.6778 47.7356 50.264C46.6711 51.3131 45.846 52.1289 44.7994 53.1612L44.2853 53.6766C44.2079 53.7539 44.1309 53.8279 44.0513 53.9073C42.3004 55.6614 40.6064 57.3593 38.9016 59.0665C37.1475 60.8282 35.4259 62.5553 33.7021 64.2856C32.8153 63.4072 31.9225 62.5202 31.0211 61.6266C30.0942 60.705 29.2128 59.8709 28.2268 58.8504C28.1038 58.7315 27.7772 58.4112 27.535 58.1735L26.0388 56.6949C24.2635 54.9045 22.491 53.1191 20.7368 51.352L18.6366 49.2116L12.268 42.8418L9.81014 40.3881C9.03061 39.6162 8.2516 38.8439 7.47311 38.071C5.97582 36.5848 4.46869 35.1085 2.95183 33.6422C2.24704 32.9615 1.80932 32.5542 1.60726 32.3867C2.72094 31.3188 3.82593 30.2419 4.92211 29.1562V29.1562ZM64.9475 33.0199L64.5 33.4672C64.4963 33.4705 64.4928 33.4741 64.4897 33.478C61.5427 30.5678 58.6173 27.6911 55.5945 24.6598L54.2467 23.3238C52.6491 21.7399 51.0553 20.1608 49.4556 18.5736C47.0444 16.1723 44.6288 13.7845 42.5139 11.73C39.8074 9.09555 37.1264 6.43516 34.4713 3.74919C33.7763 3.03717 33.1371 2.38403 32.4832 1.71469L32.9859 1.21281C33.5141 1.7471 34.0336 2.27598 34.5412 2.7892C34.7167 2.96316 35.0266 3.27055 35.2796 3.51959C37.8994 6.1235 40.5203 8.72848 43.139 11.3329C44.891 13.0714 46.5969 14.7677 48.3223 16.4829C50.4724 18.6174 52.6296 20.7361 54.7944 22.93L56.5171 24.6415C57.3497 25.4659 58.2587 26.3502 58.9928 27.0936C61.0075 29.1329 62.9723 31.0578 64.9475 33.0199ZM1.56392 32.4289C1.65493 32.5412 1.81474 32.7244 2.04443 32.975C3.10785 34.1425 4.28449 35.4158 6.89996 38.0262C7.82253 39.0078 9.05442 40.2136 10.2592 41.4123L13.2534 44.4068L14.1104 45.2453L15.1473 46.2576C16.254 47.3462 17.3911 48.4629 18.4767 49.5314C19.7455 50.7718 21.1664 52.178 22.0023 52.9419C22.0868 53.0186 22.3523 53.2806 22.5408 53.4675C24.8166 55.7187 27.0301 57.9001 29.3601 60.2685C30.7291 61.6596 32.0357 62.9896 33.5054 64.4833C33.3299 64.6589 33.1555 64.835 32.9805 65.0112L30.2919 62.3446C29.365 61.4224 28.4836 60.5888 27.4966 59.5683L26.8058 58.8914C26.3096 58.4009 25.7869 57.8839 25.3107 57.4118C23.5333 55.6225 21.7618 53.8365 20.0088 52.0705C19.2818 51.3299 18.6257 50.6632 17.9074 49.9296C15.7946 47.8157 13.6646 45.6861 11.5399 43.5597L9.08097 41.106C8.37076 40.4032 7.53433 39.5729 6.74286 38.7884C5.24597 37.3019 3.73884 35.8256 2.22158 34.3596C1.49891 33.6622 1.05361 33.2479 0.859669 33.089C1.06553 32.8989 1.3028 32.6768 1.56392 32.4289V32.4289ZM36.0071 2.80271C38.628 5.40661 41.25 8.01214 43.8676 10.6144C45.6185 12.355 47.3255 14.0503 49.0509 15.765C51.2 17.9005 53.3582 20.0193 55.523 22.2126C56.0392 22.7264 56.6709 23.353 57.2457 23.924C58.0783 24.7484 58.9873 25.6328 59.7214 26.3751C61.7372 28.416 63.6999 30.3403 65.6761 32.3024L65.2422 32.7368C62.2935 29.8244 59.3655 26.9461 56.3415 23.9127C54.2955 21.8843 52.2492 19.8561 50.2026 17.8281C47.903 15.5323 45.5891 13.2509 43.2609 10.9839C40.5447 8.346 37.9167 5.72427 35.2195 3.00205L33.2302 0.969171L33.7107 0.491608L35.2682 2.07232C35.4454 2.24627 35.7552 2.5542 36.0071 2.80271V2.80271ZM26.749 60.3144L26.0583 59.638L24.562 58.1583C22.7857 56.368 21.0142 54.5826 19.2601 52.816C18.5331 52.0759 17.8792 51.4087 17.1587 50.6756L10.7923 44.3053L8.33338 41.8521L5.99527 39.5345C4.49833 38.0483 2.99156 36.572 1.47507 35.1057C0.634851 34.2943 0.171671 33.8691 0.0394887 33.7794C0.0703674 33.7681 0.125082 33.7319 0.212842 33.6617C0.346108 33.5547 0.556841 33.3683 0.819039 33.1274C0.906799 33.2381 1.07311 33.4272 1.31526 33.693C2.37868 34.8604 3.55532 36.1338 6.17079 38.7441C7.09336 39.7257 8.32526 40.9315 9.53115 42.1298C10.5225 43.1227 11.5247 44.1243 12.5242 45.1242L13.3812 45.9627L14.4181 46.9756L17.7487 50.2483C19.0174 51.4903 20.4383 52.8954 21.2732 53.6593C21.3577 53.7366 21.6231 53.9986 21.8116 54.185C24.0885 56.4366 26.302 58.6181 28.6309 60.9859L32.7838 65.2083L32.2334 65.7594C31.3373 64.8696 30.4407 63.9802 29.5438 63.0912C28.6179 62.1679 27.7365 61.3338 26.749 60.3144V60.3144Z" fill="white"/>
<path d="M20.9579 44.4311L18.2432 44.8111V45.9272H26.135V44.8111L23.3584 44.4596V23.2338L26.0112 23.0106V21.7662H18.3051V23.0106L20.9579 23.2338V44.4311ZM32.4028 44.4311L29.6547 44.8111V45.9272H46.7196L47.3912 41.1444L46.2719 40.8262L44.8336 44.2696L34.7985 44.5261V33.8491L41.0948 33.9441L41.4473 36.4613H42.757V29.8927H41.4473L41.0948 32.3815L34.7985 32.4765V23.1056L44.1954 23.2956L44.805 26.1026H46.1767L45.729 21.7662H29.7166V23.0106L32.4028 23.2671V44.4311Z" fill="white"/>
<path d="M75.7908 31.7996L74 32.0703V32.9015H79.4819V32.0703L77.6435 31.7996V18.2444L79.3962 18.0781V17.1425H74.0381V18.0781L75.7908 18.2444V31.7996ZM84.0875 32.8492C85.002 33.0345 85.9355 33.1295 86.8785 33.1295C88.4073 33.1295 89.6647 32.778 90.6553 32.0703C91.6412 31.3626 92.1318 30.294 92.1318 28.8691C92.1318 28.1329 91.9222 27.487 91.4984 26.9266C91.0745 26.3661 90.5649 25.8912 89.9647 25.5017C89.3694 25.1122 88.5693 24.6563 87.5691 24.1291C86.4165 23.5449 85.5354 22.9987 84.9305 22.4762C84.3257 21.9585 84.0256 21.3363 84.0256 20.6144C84.0256 19.9922 84.1875 19.4793 84.5162 19.0756C84.84 18.6766 85.2401 18.3869 85.7116 18.2064C86.1831 18.0259 86.6499 17.9357 87.1071 17.9357C87.6358 17.9357 88.1263 17.9879 88.5788 18.1019C89.0312 18.2111 89.3837 18.3774 89.6314 18.6006L90.3601 20.5764H91.1935V17.7884C90.8316 17.5794 90.3124 17.399 89.6314 17.2375C88.9503 17.0807 88.1501 17 87.2357 17C86.4689 17 85.7116 17.1377 84.9639 17.4132C84.2113 17.6934 83.5827 18.1256 83.0778 18.7146C82.5682 19.3035 82.3158 20.0397 82.3158 20.9279C82.3158 21.6498 82.511 22.2862 82.8968 22.8419C83.2874 23.3929 83.7732 23.8678 84.359 24.2621C84.94 24.661 85.683 25.0932 86.588 25.5634C87.4357 26.0194 88.112 26.4136 88.6121 26.7461C89.1122 27.0833 89.5313 27.4633 89.8695 27.9002C90.2124 28.3372 90.3839 28.8359 90.3839 29.3868C90.3839 30.3177 90.06 31.0112 89.4123 31.4766C88.7645 31.9421 87.9977 32.1748 87.1071 32.1748C86.4165 32.1748 85.7592 32.0941 85.1496 31.9326C84.54 31.7758 84.0446 31.5004 83.6684 31.1157L83.0635 29.0781H82.211V32.2793C82.5444 32.474 83.1683 32.664 84.0875 32.8492ZM98.9092 31.7996L96.3421 32.0703V32.9015H103.453V32.0703L100.762 31.7996V18.1826L104.577 18.3726L105.077 20.3674L105.849 20.2819L105.868 17.1425H93.7368L93.4892 20.2439L94.3655 20.2202L95.0323 18.3916L98.9092 18.1826V31.7996ZM113.75 31.7996L111.997 32.0703V32.9015H123.275L123.733 29.743L122.818 29.5151L121.818 31.6951L115.584 31.8613V25.1265L119.48 25.1882L119.775 26.8126H120.751V22.4477H119.775L119.48 24.0483L115.584 24.1291V18.1446L121.38 18.2681L121.856 20.054H122.923L122.628 17.1425H112.04V18.0781L113.75 18.2444V31.7996ZM127.238 31.7996L125.485 32.0703V32.9015H136.116L136.783 29.5768L135.93 29.1588L134.72 31.6144L129.072 31.8423L129.091 18.3299L130.948 18.1826V17.1425H125.528V18.1826L127.238 18.3299V31.7996ZM139.85 31.7996L138.097 32.0703V32.9015H149.375L149.833 29.743L148.913 29.5151L147.913 31.6951L141.683 31.8613V25.1265L145.579 25.1882L145.87 26.8126H146.851V22.4477H145.87L145.579 24.0483L141.683 24.1291V18.1446L147.475 18.2681L147.956 20.054H149.018L148.728 17.1425H138.14V18.0781L139.85 18.2444V31.7996ZM150.542 18.0781L151.919 18.2254L157.315 33.1105H158.734L163.673 18.2254L164.988 18.0781V17.1425H160.382V18.0781L162.068 18.2444L158.901 28.8881L158.315 31.0492L157.648 28.9119L154.043 18.2444L155.938 18.0781V17.1425H150.542V18.0781ZM166.507 31.7996L165.05 32.0703V32.9015H169.822V32.0703L168.112 31.7996L169.26 28.4322H175.513L176.661 31.7996L174.97 32.0703V32.9015H180.247V32.0703L178.6 31.7996L173.451 17.1235H171.865L166.507 31.7996ZM173.303 21.9443L175.118 27.3113H169.636L172.427 19.1183L173.303 21.9443ZM185.977 31.7996L183.415 32.0703V32.9015H190.521V32.0703L187.835 31.7996V18.1826L191.649 18.3726L192.15 20.3674L192.921 20.2819L192.94 17.1425H180.809L180.557 20.2439L181.433 20.2202L182.1 18.3916L185.977 18.1826V31.7996ZM205.08 17.9879C204.09 17.3277 202.932 17 201.613 17C200.303 17 199.098 17.304 197.984 17.9119C196.817 18.5674 195.884 19.541 195.179 20.8471C194.479 22.1485 194.126 23.6874 194.126 25.4589C194.126 26.9408 194.412 28.2707 194.974 29.4391C195.536 30.6122 196.336 31.5289 197.37 32.1938C198.403 32.8587 199.603 33.1912 200.965 33.1912C202.299 33.1912 203.514 32.854 204.614 32.1748C205.709 31.4956 206.581 30.5125 207.219 29.2206C207.857 27.9335 208.176 26.4089 208.176 24.6468C208.176 23.1792 207.91 21.8683 207.376 20.7094C206.838 19.5505 206.076 18.6433 205.08 17.9879ZM198.579 18.8808C199.337 18.3061 200.222 18.0164 201.237 18.0164C202.251 18.0164 203.128 18.3299 203.875 18.9521C204.618 19.579 205.18 20.4149 205.561 21.4693C205.943 22.5237 206.133 23.6636 206.133 24.8985C206.133 26.3946 205.943 27.6912 205.552 28.7836C205.161 29.8808 204.604 30.7167 203.875 31.3009C203.142 31.8851 202.28 32.1748 201.28 32.1748C200.251 32.1748 199.351 31.8566 198.579 31.2296C197.808 30.598 197.217 29.7573 196.808 28.7029C196.398 27.6485 196.193 26.4991 196.193 25.25C196.193 23.7539 196.398 22.462 196.817 21.3743C197.236 20.2867 197.822 19.4555 198.579 18.8808ZM219.84 17.9452C218.916 17.3135 217.602 17 215.892 17C215.292 17 214.606 17.0285 213.825 17.0807C213.411 17.1235 213.063 17.1425 212.787 17.1425H210.158V18.1826L211.867 18.3299V31.7996L209.91 32.0703V32.9015H215.868V32.0703L213.725 31.7996V26.0431C214.573 26.0431 215.182 26.0336 215.559 26.0194C216.182 25.9671 216.773 26.3376 217.33 27.145C217.883 27.9477 218.511 29.0686 219.207 30.5125C219.621 31.3721 219.94 31.9848 220.164 32.3505C220.388 32.7163 220.588 32.9015 220.769 32.9015H223.622V32.0703L222.479 31.7996C222.284 31.7568 222.069 31.5621 221.841 31.2059C221.612 30.8544 221.283 30.294 220.85 29.5341C220.283 28.4939 219.774 27.658 219.331 27.0168C218.883 26.3804 218.421 25.9576 217.935 25.7487L217.768 25.6679C218.821 25.3355 219.664 24.775 220.288 23.9818C220.912 23.1934 221.226 22.272 221.226 21.2176C221.226 19.6692 220.764 18.5768 219.84 17.9452ZM215.077 18.0402C215.33 18.0402 215.506 18.0307 215.62 18.0164C216.94 17.9642 217.883 18.2349 218.454 18.8286C219.026 19.4223 219.307 20.2914 219.307 21.4266C219.307 22.6187 218.997 23.5164 218.373 24.1196C217.745 24.7228 216.854 25.022 215.701 25.022C214.758 25.022 214.096 25.003 213.725 24.9602V18.1826C213.973 18.1161 214.425 18.0686 215.077 18.0402Z" fill="white"/>
<path d="M115.421 47.0793H74V47.7723H115.421V47.0793Z" fill="white"/>
<path d="M122.52 44.6047C122.305 44.562 122.091 44.5382 121.867 44.5382C121.296 44.5382 120.786 44.676 120.333 44.9467C119.881 45.2222 119.529 45.5926 119.276 46.0676C119.024 46.5378 118.895 47.0602 118.895 47.6349C118.895 48.3901 119.019 48.9838 119.262 49.4113C119.505 49.8435 119.795 50.1379 120.133 50.2947C120.467 50.4562 120.805 50.5369 121.138 50.5369C121.839 50.5369 122.453 50.3137 122.982 49.872L122.963 50.6271V52.508L121.824 52.6029V52.9877H124.439V52.6029L123.701 52.5222V44.7045L123.515 44.619L123.077 44.7852C122.915 44.7092 122.729 44.6522 122.52 44.6047ZM120.705 45.2554C121.029 45.0607 121.372 44.9657 121.743 44.9657C122 44.9657 122.229 44.9942 122.434 45.0512C122.639 45.1129 122.815 45.2222 122.963 45.3789V49.454C122.815 49.6012 122.61 49.7247 122.353 49.834C122.091 49.9432 121.772 49.9955 121.396 49.9955C120.862 49.9955 120.434 49.7865 120.11 49.378C119.786 48.9648 119.624 48.3806 119.624 47.6254C119.624 47.0412 119.724 46.552 119.924 46.1483C120.119 45.7494 120.381 45.4501 120.705 45.2554ZM125.244 45.1319L125.763 45.2222V48.0529C125.763 48.6276 125.796 49.0788 125.858 49.4018C125.92 49.7295 126.073 49.9907 126.311 50.1902C126.554 50.3944 126.92 50.4942 127.42 50.4942C128.116 50.4942 128.802 50.2187 129.473 49.6725V50.1284C129.473 50.3849 129.63 50.5132 129.945 50.5132C130.064 50.5132 130.207 50.4942 130.373 50.4562C130.54 50.4182 130.669 50.3802 130.769 50.3374V50.0239H130.13V44.7045L129.988 44.6095L128.768 44.8374V45.1699L129.402 45.2744V49.2783C129.249 49.4208 129.016 49.5727 128.697 49.7295C128.383 49.8862 128.054 49.9622 127.716 49.9622C127.373 49.9622 127.116 49.9052 126.944 49.7817C126.768 49.6582 126.649 49.4778 126.587 49.2308C126.525 48.9838 126.496 48.6418 126.496 48.1954V44.7045L126.339 44.6095L125.244 44.8185V45.1319ZM135.555 45.0227C135.198 44.7472 134.712 44.6095 134.103 44.6095C133.812 44.6095 133.455 44.6665 133.04 44.7757C132.621 44.8897 132.298 45.0369 132.069 45.2222L132.217 45.5879C132.402 45.4644 132.659 45.3551 132.988 45.2649C133.312 45.1747 133.602 45.1319 133.855 45.1319C134.355 45.1319 134.727 45.2364 134.979 45.4454C135.227 45.6591 135.355 46.0296 135.355 46.5663V47.0127C134.841 47.0127 134.317 47.0745 133.783 47.1932C133.255 47.3167 132.798 47.5162 132.421 47.8012C132.04 48.0861 131.85 48.4613 131.85 48.9363C131.85 49.2593 131.931 49.5395 132.093 49.777C132.25 50.0097 132.459 50.1902 132.721 50.3184C132.983 50.4419 133.264 50.5037 133.56 50.5037C134.36 50.5037 134.969 50.2614 135.393 49.777C135.393 50.0619 135.422 50.2472 135.479 50.3374C135.536 50.4277 135.665 50.4752 135.874 50.4752C136.222 50.4752 136.513 50.4182 136.751 50.3042V50.0239H136.084L136.093 46.4713C136.093 45.7779 135.912 45.2934 135.555 45.0227ZM133.45 47.7537C134.026 47.5352 134.66 47.4259 135.355 47.4259V49.473C134.931 49.8292 134.455 50.005 133.936 50.005C133.517 50.005 133.188 49.91 132.945 49.7152C132.702 49.5205 132.583 49.2213 132.593 48.8223C132.593 48.3284 132.879 47.9721 133.45 47.7537ZM138.627 49.9527L137.784 50.0477V50.3897H140.261V50.0477L139.365 49.9622V42.2632L139.189 42.1587L137.803 42.3249V42.6764L138.627 42.8046V49.9527ZM142.842 42.2727C142.756 42.1825 142.628 42.135 142.461 42.135C142.309 42.135 142.171 42.192 142.052 42.3012C141.928 42.4152 141.866 42.5529 141.866 42.7192C141.866 42.8664 141.918 42.9804 142.013 43.0706C142.109 43.1609 142.228 43.2084 142.366 43.2084C142.528 43.2084 142.666 43.1514 142.79 43.0421C142.914 42.9281 142.971 42.7904 142.971 42.6242C142.971 42.4817 142.928 42.3629 142.842 42.2727ZM142.899 44.7377L142.699 44.6427L141.461 44.9514V45.2032L142.19 45.4644V49.9622L141.347 50.0477V50.3897H143.742V50.0477L142.899 49.9527V44.7377ZM146.214 44.7235V43.3508H145.828C145.814 43.4981 145.781 43.7166 145.724 44.0015C145.667 44.2913 145.619 44.4765 145.576 44.5572C145.524 44.6617 145.457 44.7282 145.381 44.7615C145.305 44.7947 145.162 44.8279 144.952 44.8612L144.681 44.9134V45.2127H145.495V49.0883C145.495 49.5965 145.586 49.9622 145.771 50.1807C145.957 50.4039 146.238 50.5132 146.619 50.5132C146.886 50.5132 147.176 50.4657 147.491 50.3754C147.805 50.2804 148.034 50.1569 148.172 50.005L148.048 49.6392C147.943 49.7152 147.781 49.7912 147.553 49.8625C147.329 49.9385 147.105 49.9717 146.891 49.9717C146.691 49.9717 146.543 49.929 146.448 49.834C146.352 49.739 146.29 49.5775 146.262 49.3448C146.229 49.112 146.214 48.7558 146.214 48.2714V45.2127H148.119V44.7235H146.214ZM149.662 52.3655C149.51 52.3655 149.377 52.3417 149.258 52.3037V52.9259C149.286 52.9449 149.339 52.9639 149.424 52.9782C149.505 52.9924 149.586 52.9972 149.662 52.9972C149.843 52.9972 149.991 52.9829 150.101 52.9592C150.505 52.8594 150.853 52.6172 151.144 52.223C151.434 51.8335 151.72 51.2778 151.996 50.5559C152.139 50.2092 152.744 48.4234 153.82 45.1937L154.459 45.1319V44.714H152.353V45.1319L153.187 45.1937L152.063 48.8413L151.715 50.0477L151.258 48.7558L149.958 45.2032L150.801 45.1319V44.714H148.505V45.1319L149.143 45.2032L151.277 50.5132H151.415C151.191 51.2018 150.92 51.6815 150.601 51.9665C150.282 52.2467 149.967 52.3797 149.662 52.3655ZM161.293 41.9402C161.164 41.8832 160.922 41.8547 160.564 41.8547C160.255 41.8547 159.94 41.9545 159.626 42.154C159.317 42.3487 159.055 42.6337 158.85 43.0041C158.645 43.3746 158.545 43.802 158.545 44.277V44.809L157.388 45.0274V45.3362H158.545V49.9527L157.502 50.0477V50.3897H160.502V50.0477L159.283 49.9622V45.3362H160.941V44.809H159.283V43.9873C159.283 43.3983 159.388 42.9946 159.598 42.7761C159.802 42.5577 160.079 42.4484 160.422 42.4484C160.626 42.4484 160.807 42.4627 160.96 42.4912C161.112 42.5197 161.226 42.5529 161.293 42.5957V41.9402ZM163.365 42.2727C163.279 42.1825 163.151 42.135 162.984 42.135C162.831 42.135 162.693 42.192 162.565 42.3012C162.441 42.4152 162.379 42.5529 162.379 42.7192C162.379 42.8664 162.431 42.9804 162.531 43.0706C162.631 43.1609 162.75 43.2084 162.889 43.2084C163.051 43.2084 163.189 43.1514 163.312 43.0421C163.432 42.9281 163.493 42.7904 163.493 42.6242C163.493 42.4817 163.451 42.3629 163.365 42.2727ZM163.413 44.7377L163.222 44.6427L161.984 44.9514V45.2032L162.712 45.4644V49.9622L161.879 50.0477V50.3897H164.265V50.0477L163.413 49.9527V44.7377ZM166.07 49.9527L165.17 50.0477V50.3897H168.342V50.0477L166.799 49.9527V45.7446C166.994 45.6211 167.223 45.5119 167.48 45.4216C167.742 45.3314 168.018 45.2887 168.309 45.2887C168.623 45.2887 168.894 45.3314 169.123 45.4216V44.6427C169.037 44.619 168.871 44.6095 168.613 44.6095C168.294 44.6095 167.932 44.7045 167.537 44.8849C167.142 45.0702 166.865 45.2554 166.713 45.4406V44.7377L166.518 44.6427L165.318 44.9514V45.2032L166.07 45.4739V49.9527ZM170.509 48.9743H170.142V50.0762C170.395 50.2234 170.676 50.3327 170.985 50.4039C171.29 50.4799 171.604 50.5132 171.914 50.5132C172.562 50.5132 173.086 50.3707 173.486 50.0904C173.886 49.8055 174.086 49.397 174.086 48.8746C174.086 48.5896 174.014 48.3474 173.871 48.1574C173.729 47.9626 173.557 47.8059 173.357 47.6872C173.162 47.5684 172.905 47.4402 172.581 47.293L172.352 47.1885C171.957 47.008 171.681 46.875 171.523 46.7895C171.366 46.704 171.228 46.59 171.109 46.4523C170.985 46.3098 170.923 46.1436 170.923 45.9393C170.923 45.6449 171.042 45.4026 171.276 45.2174C171.509 45.0369 171.828 44.9419 172.238 44.9419C172.452 44.9419 172.652 44.9752 172.838 45.0369C173.024 45.0987 173.171 45.1842 173.281 45.2982L173.457 45.9298H173.8V44.9134C173.648 44.8137 173.429 44.7282 173.148 44.6522C172.862 44.5762 172.567 44.5382 172.262 44.5382C171.933 44.5382 171.614 44.5952 171.295 44.7092C170.981 44.8232 170.719 44.9942 170.519 45.2222C170.318 45.4549 170.218 45.7351 170.218 46.0771C170.218 46.4713 170.357 46.7895 170.633 47.0317C170.914 47.274 171.3 47.5114 171.8 47.7394C171.89 47.7822 172 47.8249 172.124 47.8724C172.409 48.0006 172.633 48.1051 172.795 48.1954C172.962 48.2856 173.095 48.3996 173.209 48.5373C173.319 48.6798 173.376 48.8461 173.376 49.0408C173.376 49.3828 173.248 49.644 173 49.8197C172.747 49.9907 172.424 50.0762 172.019 50.0762C171.457 50.0762 171.004 49.9385 170.666 49.663L170.509 48.9743ZM176.772 44.7235V43.3508H176.386C176.372 43.4981 176.339 43.7166 176.281 44.0015C176.229 44.2913 176.177 44.4765 176.139 44.5572C176.081 44.6617 176.015 44.7282 175.939 44.7615C175.862 44.7947 175.719 44.8279 175.51 44.8612L175.238 44.9134V45.2127H176.053V49.0883C176.053 49.5965 176.143 49.9622 176.329 50.1807C176.515 50.4039 176.796 50.5132 177.177 50.5132C177.444 50.5132 177.734 50.4657 178.048 50.3754C178.368 50.2804 178.591 50.1569 178.734 50.005L178.606 49.6392C178.501 49.7152 178.339 49.7912 178.11 49.8625C177.886 49.9385 177.667 49.9717 177.448 49.9717C177.248 49.9717 177.101 49.929 177.005 49.834C176.915 49.739 176.853 49.5775 176.82 49.3448C176.786 49.112 176.772 48.7558 176.772 48.2714V45.2127H178.682V44.7235H176.772Z" fill="white"/>
<path d="M223.626 47.0793H182.205V47.7723H223.626V47.0793Z" fill="white"/>
</svg>
