<svg width="186" height="186" viewBox="0 0 186 186" fill="none" xmlns="http://www.w3.org/2000/svg">
<g clip-path="url(#clip0_2187_238)">
<path d="M128.999 150.178L126.384 143.922L125.999 143H125L119 143L113 143H112.001L111.616 143.922L109.001 150.178H40.0099H40L39.9901 150.178C20.4625 150.436 3.92105 135.842 1.74097 116.435L0.363782 116.589L1.74096 116.435C-0.601605 95.5862 14.4009 76.7889 35.2494 74.4467L36.5097 74.3051L36.5797 73.0388C37.2439 61.0199 43.3667 49.9651 53.2026 43.0269L53.2028 43.0268C70.9772 30.4841 95.5529 34.7293 108.093 52.504L108.751 53.4369L109.826 53.051C111.415 52.4803 113.057 52.0718 114.726 51.836C128.122 49.9447 140.515 59.2752 142.403 72.671L142.585 73.9616H143.889H146.047H147.271C168.06 74.4374 184.676 91.528 184.498 112.391C184.319 133.441 167.11 150.357 146.06 150.178H146.047L128.999 150.178Z" fill="url(#paint0_linear_2187_238)" stroke="#99A8BA" stroke-width="3"/>
</g>
<g clip-path="url(#clip1_2187_238)">
<path d="M128.122 167.268L127.573 166.723L126.907 167.117C124.591 168.491 121.885 169.282 118.993 169.282C110.454 169.282 103.518 162.389 103.518 153.934C103.518 145.48 110.454 138.587 118.993 138.587C127.532 138.587 134.467 145.48 134.467 153.934C134.467 157.064 133.518 159.976 131.889 162.406L131.429 163.092L132.015 163.673L138.084 169.694C138.084 169.694 138.084 169.694 138.084 169.694C139.12 170.722 139.119 172.385 138.084 173.412C137.565 173.928 136.884 174.186 136.199 174.186C135.515 174.186 134.834 173.928 134.314 173.413L128.122 167.268ZM91.5356 148.577C93.0127 148.577 94.1965 149.763 94.1965 151.21C94.1965 152.657 93.0127 153.843 91.5356 153.843H86.4102C84.9331 153.843 83.7492 152.657 83.7492 151.21C83.7492 149.763 84.9331 148.577 86.4102 148.577H91.5356ZM117.895 125.509C119.372 125.509 120.556 126.694 120.556 128.141C120.556 129.588 119.372 130.774 117.895 130.774H86.4102C84.9331 130.774 83.7492 129.588 83.7492 128.141C83.7492 126.694 84.9331 125.509 86.4102 125.509H117.895ZM117.895 108.977H86.4102C84.9331 108.977 83.7492 107.792 83.7492 106.345C83.7492 104.898 84.9331 103.712 86.4102 103.712H117.895C119.372 103.712 120.556 104.898 120.556 106.345C120.556 107.792 119.372 108.977 117.895 108.977ZM68.1054 148.577H71.7663C73.2434 148.577 74.4273 149.763 74.4273 151.21C74.4273 152.657 73.2434 153.843 71.7663 153.843H68.1054C66.6282 153.843 65.4444 152.657 65.4444 151.21C65.4444 149.763 66.6282 148.577 68.1054 148.577ZM68.1054 125.509H71.7663C73.2434 125.509 74.4273 126.694 74.4273 128.141C74.4273 129.588 73.2434 130.774 71.7663 130.774H68.1054C66.6282 130.774 65.4444 129.588 65.4444 128.141C65.4444 126.694 66.6282 125.509 68.1054 125.509ZM68.1054 103.712H71.7663C73.2434 103.712 74.4273 104.898 74.4273 106.345C74.4273 107.792 73.2434 108.977 71.7663 108.977H68.1054C66.6282 108.977 65.4444 107.792 65.4444 106.345C65.4444 104.898 66.6282 103.712 68.1054 103.712ZM118.993 164.016C124.585 164.016 129.145 159.502 129.145 153.934C129.145 148.367 124.585 143.852 118.993 143.852C113.401 143.852 108.84 148.367 108.84 153.934C108.84 159.502 113.401 164.016 118.993 164.016ZM60.7834 83.1864H125.216C132.746 83.1864 138.86 89.2644 138.86 96.7176V132.682C138.86 134.129 137.677 135.315 136.199 135.315C134.722 135.315 133.538 134.129 133.538 132.682V96.7176C133.538 92.1521 129.799 88.452 125.216 88.452H60.7834C56.2013 88.452 52.4615 92.1521 52.4615 96.7176V160.655C52.4615 165.221 56.2013 168.921 60.7834 168.921H98.4914C99.9685 168.921 101.152 170.106 101.152 171.553C101.152 173.001 99.9685 174.186 98.4914 174.186H60.7834C53.2535 174.186 47.1395 168.108 47.1395 160.655V96.7176C47.1395 89.2644 53.2535 83.1864 60.7834 83.1864Z" fill="#2C3641" stroke="#99A8BA" stroke-width="2"/>
</g>
<defs>
<linearGradient id="paint0_linear_2187_238" x1="6.08995e-05" y1="34.5" x2="186" y2="151.5" gradientUnits="userSpaceOnUse">
<stop stop-color="#2C3641"/>
<stop offset="1" stop-color="#151A20"/>
</linearGradient>
<clipPath id="clip0_2187_238">
<rect width="186" height="186" fill="white"/>
</clipPath>
<clipPath id="clip1_2187_238">
<rect width="93.7209" height="93" fill="white" transform="translate(46.1395 82.186)"/>
</clipPath>
</defs>
</svg>
