<?xml version="1.0" standalone="no"?>
<!DOCTYPE svg PUBLIC "-//W3C//DTD SVG 20010904//EN"
 "http://www.w3.org/TR/2001/REC-SVG-20010904/DTD/svg10.dtd">
<svg version="1.0" xmlns="http://www.w3.org/2000/svg"
 width="318.000000pt" height="318.000000pt" viewBox="0 0 318.000000 318.000000"
 preserveAspectRatio="xMidYMid meet">
<metadata>
Created by potrace 1.14, written by Peter Selinger 2001-2017
</metadata>
<g transform="translate(0.000000,318.000000) scale(0.100000,-0.100000)"
fill="#000000" stroke="none">
<path d="M811 2322 c-440 -439 -801 -801 -801 -806 0 -4 7 -1 14 7 13 13 70
-40 448 -417 525 -522 668 -661 668 -649 0 5 -245 253 -544 550 l-544 541 146
142 c81 78 418 411 748 740 l602 599 278 -276 c807 -798 1244 -1235 1244
-1241 0 -12 -1439 -1447 -1450 -1447 -5 0 -312 302 -682 670 -731 728 -859
853 -835 815 15 -23 378 -386 1175 -1173 275 -271 330 -330 320 -341 -7 -8
-14 -13 -15 -12 -1 0 -99 97 -217 215 -119 118 -216 211 -216 207 0 -4 85 -93
189 -197 104 -104 201 -203 216 -221 l27 -32 416 416 c230 228 518 514 641
634 258 252 524 521 529 535 2 5 -38 50 -90 100 -51 50 -267 263 -479 473
-696 687 -979 966 -983 966 -2 0 -364 -359 -805 -798z m1128 458 c920 -910
1208 -1199 1202 -1209 -8 -12 -19 -2 -641 612 -881 870 -899 888 -893 903 6
17 1 21 332 -306z m66 -132 c1052 -1042 1108 -1099 1098 -1109 -12 -12 7 -29
-579 550 -226 223 -533 526 -683 673 -241 238 -294 298 -262 298 5 0 197 -186
426 -412z"/>
<path d="M884 2081 c-7 -8 -4 -50 4 -55 5 -3 28 -6 53 -7 24 -1 50 -4 57 -7 9
-3 12 -114 12 -507 l0 -503 -65 -7 c-64 -6 -65 -7 -65 -36 l0 -29 187 2 188 3
0 25 c0 23 -5 26 -60 34 -33 5 -62 11 -65 13 -8 8 -6 1003 2 1004 4 1 13 3 18
4 6 1 30 3 55 4 44 1 45 2 45 34 l0 33 -181 0 c-99 -1 -182 -3 -185 -5z"/>
<path d="M1430 2053 c0 -32 1 -33 45 -33 25 0 47 1 48 3 2 1 11 -4 19 -10 13
-11 15 -80 14 -510 l-1 -498 -65 -10 c-66 -10 -67 -11 -61 -55 1 -6 144 -10
406 -10 223 0 405 1 406 3 0 1 8 52 18 114 l17 112 -27 10 c-26 9 -28 8 -59
-67 -17 -43 -35 -80 -38 -84 -4 -3 -114 -9 -244 -12 l-238 -6 0 254 0 254 145
-2 c80 -2 149 -7 154 -12 5 -5 11 -31 14 -59 3 -27 6 -51 6 -51 1 -1 16 -2 34
-2 l32 0 0 159 0 159 -31 0 c-35 0 -44 -16 -44 -78 0 -18 -6 -35 -13 -38 -7
-2 -76 -6 -152 -7 l-140 -2 -3 223 -2 223 221 -6 c121 -2 224 -7 229 -10 4 -3
11 -28 15 -55 4 -28 13 -57 20 -64 19 -19 67 -9 61 13 -2 9 -8 52 -11 96 -4
44 -9 82 -12 85 -2 3 -175 5 -384 5 l-379 0 0 -32z"/>
<path d="M35 1480 c39 -49 498 -511 785 -790 63 -61 156 -152 206 -201 50 -49
95 -89 99 -89 5 0 -196 204 -446 453 -462 460 -679 672 -644 627z"/>
<path d="M1325 193 c107 -108 197 -194 200 -192 5 6 -378 389 -389 389 -3 0
82 -89 189 -197z"/>
</g>
</svg>
