<svg width="28" height="23" viewBox="0 0 28 23" fill="none" xmlns="http://www.w3.org/2000/svg">
<path d="M26.1347 13.0158C25.5045 12.1246 24.6622 11.4263 23.6813 10.9764L24.9921 6.36784H26.0587V4.99631H21.2741L17.6618 0L16.5506 0.803794L19.5817 4.9965H6.47775L9.50979 0.803794L8.39814 0L4.78514 4.99631H0V6.36784H1.06663L4.84371 19.6411C4.9064 19.862 5.10846 20.0146 5.33819 20.0146H16.0439C17.1909 21.6979 19.0775 22.6984 21.1188 22.6984C24.5045 22.6984 27.2589 19.9441 27.2589 16.5581C27.2591 15.2804 26.8702 14.0555 26.1347 13.0158ZM7.67686 15.8659L6.5 8.69849H9L9.5 12.5L10 15.7628L7.67686 15.8659ZM14.5 15.7628H12.3435V8.69849H14.5V12.5V15.7628ZM17.331 8.69849H19.5L19.1615 10.7375C18.7366 10.8801 18.3275 11.0691 17.9416 11.303C17.8463 11.3606 17.3579 11.726 17.2658 11.7889L17.331 8.69849ZM21.1188 21.3267C19.8768 21.3267 18.7084 20.8498 17.8321 20.0144C17.5644 19.7592 17.3236 19.4702 17.1164 19.1513C16.6151 18.3798 16.3501 17.4829 16.3501 16.5576C16.3501 15.4825 16.7015 14.4712 17.331 13.6534C17.6866 13.1915 18.1314 12.7911 18.6518 12.4759C18.7395 12.4227 18.8291 12.3723 18.92 12.3253C19.5962 11.9738 20.3501 11.7889 21.1188 11.7889C21.6914 11.7889 22.2506 11.8891 22.7816 12.087C22.9601 12.1536 23.1333 12.23 23.3 12.316C24.868 13.1251 25.8874 14.7651 25.8874 16.5574C25.8874 19.1873 23.748 21.3267 21.1188 21.3267Z" fill="white"/>
<path d="M24.115 16.052V17.5578H21.9053V19.7676H20.3996V17.5578H18.1902V16.052H20.3996V13.8428H21.9053V16.052H24.115Z" fill="white"/>
</svg>
